<svg version="1.1" id="Layer_1" xmlns="http://www.w3.org/2000/svg" xmlns:xlink="http://www.w3.org/1999/xlink" x="0px" y="0px"
	 width="100%" viewBox="0 0 512 512" enable-background="new 0 0 512 512" xml:space="preserve">
<path fill="#00000000" opacity="1.000000" stroke="none" 
	d="
M290.000000,513.000000 
	C193.356796,513.000000 97.213585,513.000000 1.035192,513.000000 
	C1.035192,342.398438 1.035192,171.796860 1.035192,1.097646 
	C171.559891,1.097646 342.119843,1.097646 512.839905,1.097646 
	C512.839905,171.666550 512.839905,342.333252 512.839905,513.000000 
	C438.796844,513.000000 364.648407,513.000000 290.000000,513.000000 
M245.887192,490.999969 
	C249.642899,491.326630 253.418121,492.069489 257.150330,491.894684 
	C265.351288,491.510559 273.572906,490.986877 281.708221,489.924316 
	C292.697449,488.489044 303.814545,487.285797 314.517670,484.568451 
	C334.583771,479.473969 353.796570,471.979431 371.893921,461.671051 
	C386.685760,453.245605 400.807922,443.803986 413.072083,432.123688 
	C424.053192,421.665283 434.304077,410.293091 443.818329,398.471863 
	C464.315491,373.004608 477.590881,343.837921 484.896942,312.048492 
	C487.523865,300.618622 489.318481,288.964783 490.856384,277.329010 
	C491.847961,269.826630 492.240692,262.146027 491.900574,254.590363 
	C491.414185,243.784500 490.376007,232.969086 488.880402,222.254486 
	C487.786377,214.416962 485.577087,206.735138 483.976715,198.182953 
	C483.650360,196.766968 483.395813,195.329865 482.986847,193.938156 
	C477.155884,174.094650 470.088928,154.706589 458.676575,137.340561 
	C451.089325,125.795143 443.171143,114.321312 434.135651,103.914062 
	C424.863251,93.233887 414.683655,83.114815 403.731720,74.184258 
	C393.201721,65.597794 381.690308,57.866302 369.669800,51.548191 
	C355.941650,44.332500 341.479523,38.178276 326.765198,33.277561 
	C314.519318,29.198965 301.527710,27.093874 288.716278,25.060358 
	C277.883392,23.340885 266.848938,22.485321 255.877823,22.181604 
	C248.212143,21.969391 240.507812,23.399284 232.812012,23.979866 
	C214.685059,25.347385 197.194992,29.534695 180.043106,35.438595 
	C164.783844,40.691036 149.922165,46.827618 136.540390,55.915504 
	C125.483940,63.424194 114.299057,70.919495 104.202950,79.618332 
	C93.577782,88.773018 83.284698,98.622856 74.451637,109.475388 
	C61.103905,125.874779 49.419880,143.628693 41.896103,163.602432 
	C37.108456,176.312439 32.637299,189.212601 29.190081,202.333786 
	C26.512253,212.526413 25.351851,223.157272 24.049355,233.659378 
	C22.976639,242.308762 22.014668,251.070969 22.221172,259.754242 
	C22.466423,270.066650 23.341934,280.468781 25.161781,290.613617 
	C27.651573,304.493164 30.180738,318.547028 34.736633,331.824951 
	C39.549820,345.852753 46.374329,359.251312 53.030025,372.570038 
	C60.656742,387.831909 70.827660,401.570343 82.596550,413.804840 
	C93.096863,424.720551 104.438110,434.952209 116.225281,444.474396 
	C131.827713,457.078674 149.364243,466.627747 168.044373,474.119812 
	C183.178284,480.189606 198.687454,484.943787 214.696960,487.734802 
	C224.670898,489.473602 234.879288,489.867432 245.887192,490.999969 
z"/>
<path fill="#509FD7" opacity="1.000000" stroke="none" 
	d="
M244.982468,490.864868 
	C234.879288,489.867432 224.670898,489.473602 214.696960,487.734802 
	C198.687454,484.943787 183.178284,480.189606 168.044373,474.119812 
	C149.364243,466.627747 131.827713,457.078674 116.225281,444.474396 
	C104.438110,434.952209 93.096863,424.720551 82.596550,413.804840 
	C70.827660,401.570343 60.656742,387.831909 53.030025,372.570038 
	C46.374329,359.251312 39.549820,345.852753 34.736633,331.824951 
	C30.180738,318.547028 27.651573,304.493164 25.161781,290.613617 
	C23.341934,280.468781 22.466423,270.066650 22.221172,259.754242 
	C22.014668,251.070969 22.976639,242.308762 24.049355,233.659378 
	C25.351851,223.157272 26.512253,212.526413 29.190081,202.333786 
	C32.637299,189.212601 37.108456,176.312439 41.896103,163.602432 
	C49.419880,143.628693 61.103905,125.874779 74.451637,109.475388 
	C83.284698,98.622856 93.577782,88.773018 104.202950,79.618332 
	C114.299057,70.919495 125.483940,63.424194 136.540390,55.915504 
	C149.922165,46.827618 164.783844,40.691036 180.043106,35.438595 
	C197.194992,29.534695 214.685059,25.347385 232.812012,23.979866 
	C240.507812,23.399284 248.212143,21.969391 255.877823,22.181604 
	C266.848938,22.485321 277.883392,23.340885 288.716278,25.060358 
	C301.527710,27.093874 314.519318,29.198965 326.765198,33.277561 
	C341.479523,38.178276 355.941650,44.332500 369.669800,51.548191 
	C381.690308,57.866302 393.201721,65.597794 403.731720,74.184258 
	C414.683655,83.114815 424.863251,93.233887 434.135651,103.914062 
	C443.171143,114.321312 451.089325,125.795143 458.676575,137.340561 
	C470.088928,154.706589 477.155884,174.094650 482.986847,193.938156 
	C483.395813,195.329865 483.650360,196.766968 483.596375,198.504044 
	C481.557434,197.467468 479.768890,196.239944 478.259338,194.732941 
	C447.378418,163.903091 416.538757,133.031921 385.647339,102.212631 
	C384.033112,100.602188 382.032623,99.378891 379.904480,97.664078 
	C372.792236,97.262451 365.987457,97.172112 358.705200,97.008240 
	C342.841980,96.982407 327.456329,97.030106 311.599854,97.027222 
	C274.330109,97.005585 237.531174,97.034523 200.281982,97.036880 
	C187.689270,96.983032 175.545609,96.838013 163.404800,96.965851 
	C153.746338,97.067543 147.264084,103.719147 147.014114,113.401108 
	C146.923996,116.891151 146.896118,120.382805 146.457581,123.897156 
	C138.330307,125.275093 133.919479,130.085770 133.998932,137.091736 
	C134.078476,144.106110 138.570831,148.643051 146.919434,150.558990 
	C146.884933,152.598404 146.860931,154.229919 146.450165,155.885529 
	C138.729919,157.019562 134.148575,161.830902 133.997955,168.580765 
	C133.836090,175.834305 138.375061,180.596588 146.919434,182.556549 
	C146.884109,184.597794 146.858597,186.230743 146.446838,187.888062 
	C138.739227,189.010376 134.144943,193.834167 133.997482,200.578156 
	C133.839035,207.825394 138.372452,212.581589 146.918213,214.553284 
	C146.884613,216.596710 146.861221,218.231400 146.450989,219.887482 
	C138.728348,221.004776 134.147461,225.812271 133.997879,232.572037 
	C133.837265,239.830353 138.373657,244.589188 146.918671,246.544983 
	C146.884171,248.588165 146.859116,250.222641 146.447220,251.879715 
	C138.718094,253.008972 134.146545,257.809082 133.998062,264.567688 
	C133.838638,271.824188 138.389267,276.596497 146.917908,278.535278 
	C146.883850,280.578918 146.858871,282.213715 146.447174,283.872559 
	C138.726685,284.990021 134.146988,289.797882 133.996002,296.562225 
	C133.833908,303.824005 138.373337,308.585815 146.917282,310.534241 
	C146.884750,312.576202 146.861023,314.209656 146.450256,315.867889 
	C138.692276,316.987366 134.145935,321.753876 133.996872,328.543274 
	C133.836899,335.830872 138.351639,340.573517 146.917923,342.533875 
	C146.883820,344.571655 146.858871,346.201721 146.446854,347.858185 
	C143.777237,348.705566 141.191147,349.092377 139.272385,350.433746 
	C134.618286,353.687469 133.040161,358.517883 134.359970,363.953186 
	C135.921143,370.382568 140.675735,373.279083 146.919342,374.580750 
	C146.572693,384.854797 146.437943,394.588837 157.077576,400.332642 
	C158.611862,402.449982 159.925720,404.375793 161.544083,405.997803 
	C187.965073,432.477722 214.436630,458.907227 240.845581,485.399139 
	C242.443878,487.002411 243.613434,489.033081 244.982468,490.864868 
z"/>
<path fill="#488FC2" opacity="1.000000" stroke="none" 
	d="
M380.211975,97.975357 
	C382.032623,99.378891 384.033112,100.602188 385.647339,102.212631 
	C416.538757,133.031921 447.378418,163.903091 478.259338,194.732941 
	C479.768890,196.239944 481.557434,197.467468 483.540466,198.904510 
	C485.577087,206.735138 487.786377,214.416962 488.880402,222.254486 
	C490.376007,232.969086 491.414185,243.784500 491.900574,254.590363 
	C492.240692,262.146027 491.847961,269.826630 490.856384,277.329010 
	C489.318481,288.964783 487.523865,300.618622 484.896942,312.048492 
	C477.590881,343.837921 464.315491,373.004608 443.818329,398.471863 
	C434.304077,410.293091 424.053192,421.665283 413.072083,432.123688 
	C400.807922,443.803986 386.685760,453.245605 371.893921,461.671051 
	C353.796570,471.979431 334.583771,479.473969 314.517670,484.568451 
	C303.814545,487.285797 292.697449,488.489044 281.708221,489.924316 
	C273.572906,490.986877 265.351288,491.510559 257.150330,491.894684 
	C253.418121,492.069489 249.642899,491.326630 245.434830,490.932434 
	C243.613434,489.033081 242.443878,487.002411 240.845581,485.399139 
	C214.436630,458.907227 187.965073,432.477722 161.544083,405.997803 
	C159.925720,404.375793 158.611862,402.449982 157.498566,400.345581 
	C159.955978,400.314209 162.069992,400.842133 164.186432,400.852051 
	C176.377853,400.909149 188.569839,400.843689 201.244904,400.837646 
	C260.972046,400.855469 320.215912,400.855469 380.054901,400.855469 
	C380.054901,397.908936 380.054901,395.617920 380.054901,393.326935 
	C380.054901,297.372955 380.053711,201.418976 380.061462,105.465004 
	C380.061676,102.968452 380.159607,100.471909 380.211975,97.975357 
z"/>
<path fill="#DAD7DC" opacity="1.000000" stroke="none" 
	d="
M379.904480,97.664078 
	C380.159607,100.471909 380.061676,102.968452 380.061462,105.465004 
	C380.053711,201.418976 380.054901,297.372955 380.054901,393.326935 
	C380.054901,395.617920 380.054901,397.908936 380.054901,400.855469 
	C320.215912,400.855469 260.972046,400.855469 201.224213,400.387146 
	C200.724258,298.967010 200.728256,198.015244 200.732254,97.063461 
	C237.531174,97.034523 274.330109,97.005585 311.595276,97.490402 
	C312.061523,123.170197 312.061523,148.336227 312.061523,174.519302 
	C320.598969,168.514145 328.057465,163.267929 335.725494,157.874313 
	C343.352936,163.231339 350.847595,168.495117 359.182709,174.349167 
	C359.182709,147.666000 359.182709,122.373886 359.182709,97.081764 
	C365.987457,97.172112 372.792236,97.262451 379.904480,97.664078 
M242.247391,271.906830 
	C235.927444,298.987915 252.115067,326.021881 278.605560,332.626434 
	C305.719360,339.386353 333.074951,323.122131 340.143951,296.826813 
	C347.737152,268.581573 328.814545,241.078842 304.371216,234.861572 
	C276.729980,227.830887 249.602173,243.708191 242.247391,271.906830 
z"/>
<path fill="#344E5C" opacity="1.000000" stroke="none" 
	d="
M200.281982,97.036888 
	C200.728256,198.015244 200.724258,298.967010 200.740952,400.369293 
	C188.569839,400.843689 176.377853,400.909149 164.186432,400.852051 
	C162.069992,400.842133 159.955978,400.314209 157.419846,400.012634 
	C146.437943,394.588837 146.572693,384.854797 147.307587,374.511475 
	C156.003983,372.222015 159.629303,368.386261 159.530396,359.765106 
	C157.570480,361.523956 155.989700,362.342285 155.353821,363.627930 
	C153.579971,367.214447 151.253052,369.589264 146.964600,368.696747 
	C146.935135,362.807404 146.892410,357.401123 146.914001,351.583130 
	C146.930191,350.058228 146.882065,348.945038 146.833923,347.831818 
	C146.858871,346.201721 146.883820,344.571655 147.306595,342.464813 
	C155.997437,340.239075 159.631790,336.391815 159.527786,327.761566 
	C157.567841,329.525146 155.989426,330.346069 155.352661,331.632965 
	C153.578064,335.219391 151.256287,337.603485 146.962296,336.700928 
	C146.934250,330.810089 146.891968,325.402649 146.914001,319.584534 
	C146.931320,318.063629 146.884308,316.953369 146.837280,315.843140 
	C146.861023,314.209656 146.884750,312.576202 147.306503,310.467010 
	C155.977112,308.264832 159.640228,304.384888 159.523376,295.757385 
	C157.565170,297.527161 155.995071,298.352173 155.353317,299.639832 
	C153.571289,303.215546 151.259003,305.619080 146.959778,304.708191 
	C146.933472,298.814575 146.891815,293.405060 146.914291,287.585266 
	C146.930252,286.066132 146.882080,284.957306 146.833893,283.848511 
	C146.858871,282.213715 146.883850,280.578918 147.307007,278.467804 
	C155.980087,276.261688 159.627792,272.403595 159.523468,263.790253 
	C157.567169,265.555573 155.994766,266.379791 155.352402,267.667847 
	C153.569122,271.243622 151.240051,273.618713 146.957245,272.717712 
	C146.931976,266.818970 146.890533,261.405243 146.912933,255.582367 
	C146.929199,254.067871 146.881622,252.962494 146.834045,251.857117 
	C146.859116,250.222641 146.884171,248.588165 147.308167,246.477554 
	C155.987762,244.260117 159.639328,240.393158 159.518402,231.788895 
	C157.564224,233.556793 155.992081,234.383514 155.350815,235.673111 
	C153.569855,239.254730 151.236313,241.624817 146.954269,240.724365 
	C146.930893,234.823212 146.889984,229.407700 146.912872,223.583832 
	C146.930389,222.072342 146.884125,220.969223 146.837845,219.866089 
	C146.861221,218.231400 146.884613,216.596710 147.308075,214.485504 
	C155.962677,212.284744 159.604584,208.435730 159.548599,199.800842 
	C157.584869,201.553543 155.989014,202.365753 155.367004,203.649734 
	C153.614456,207.267365 151.212921,209.547302 146.981506,208.810074 
	C146.942062,202.881729 146.895844,197.443527 146.913116,191.595352 
	C146.928772,190.078156 146.880920,188.970932 146.833069,187.863708 
	C146.858597,186.230743 146.884109,184.597794 147.309525,182.489319 
	C155.965836,180.287247 159.619949,176.422852 159.543549,167.799576 
	C157.603271,169.537460 155.995422,170.359360 155.370590,171.655243 
	C153.621140,175.283371 151.207199,177.545380 146.981293,176.819427 
	C146.942169,170.887497 146.896164,165.446564 146.913437,159.595413 
	C146.930115,158.077286 146.883530,156.969345 146.836929,155.861420 
	C146.860931,154.229919 146.884933,152.598404 147.309830,150.492371 
	C155.946198,148.315659 159.625275,144.421204 159.538223,135.795303 
	C157.578873,137.556702 155.987411,138.375153 155.366882,139.661819 
	C153.617905,143.288452 151.205154,145.558609 146.977783,144.832977 
	C146.940887,138.903732 146.895447,133.466507 146.913300,127.617844 
	C146.931000,126.095505 146.885422,124.984612 146.839844,123.873718 
	C146.896118,120.382805 146.923996,116.891151 147.014114,113.401108 
	C147.264084,103.719147 153.746338,97.067543 163.404800,96.965851 
	C175.545609,96.838013 187.689270,96.983032 200.281982,97.036888 
z"/>
<path fill="#DC5A4F" opacity="1.000000" stroke="none" 
	d="
M358.705200,97.008240 
	C359.182709,122.373886 359.182709,147.666000 359.182709,174.349167 
	C350.847595,168.495117 343.352936,163.231339 335.725494,157.874313 
	C328.057465,163.267929 320.598969,168.514145 312.061523,174.519302 
	C312.061523,148.336227 312.061523,123.170197 312.066101,97.540985 
	C327.456329,97.030106 342.841980,96.982407 358.705200,97.008240 
z"/>
<path fill="#A9AEB4" opacity="1.000000" stroke="none" 
	d="
M146.948059,337.184387 
	C151.256287,337.603485 153.578064,335.219391 155.352661,331.632965 
	C155.989426,330.346069 157.567841,329.525146 159.527786,327.761566 
	C159.631790,336.391815 155.997437,340.239075 147.315750,342.057129 
	C138.351639,340.573517 133.836899,335.830872 133.996872,328.543274 
	C134.145935,321.753876 138.692276,316.987366 146.450272,315.867889 
	C146.884308,316.953369 146.931320,318.063629 146.557281,319.620056 
	C140.641403,321.832153 137.922607,325.059723 138.259186,329.417297 
	C138.601929,333.854584 141.586151,336.522217 146.948059,337.184387 
z"/>
<path fill="#A9AEB4" opacity="1.000000" stroke="none" 
	d="
M146.446869,347.858185 
	C146.882065,348.945038 146.930191,350.058228 146.557098,351.617950 
	C140.635529,353.828186 137.921982,357.049194 138.258881,361.414520 
	C138.601059,365.848511 141.589920,368.518555 146.951355,369.179779 
	C151.253052,369.589264 153.579971,367.214447 155.353821,363.627930 
	C155.989700,362.342285 157.570480,361.523956 159.530396,359.765106 
	C159.629303,368.386261 156.003983,372.222015 147.317078,374.053284 
	C140.675735,373.279083 135.921143,370.382568 134.359970,363.953186 
	C133.040161,358.517883 134.618286,353.687469 139.272385,350.433746 
	C141.191147,349.092377 143.777237,348.705566 146.446869,347.858185 
z"/>
<path fill="#A9AEB4" opacity="1.000000" stroke="none" 
	d="
M146.944397,305.192291 
	C151.259003,305.619080 153.571289,303.215546 155.353317,299.639832 
	C155.995071,298.352173 157.565170,297.527161 159.523376,295.757385 
	C159.640228,304.384888 155.977112,308.264832 147.315308,310.058533 
	C138.373337,308.585815 133.833908,303.824005 133.996002,296.562225 
	C134.146988,289.797882 138.726685,284.990021 146.447174,283.872559 
	C146.882080,284.957306 146.930252,286.066132 146.557678,287.620758 
	C140.631866,289.846100 137.925247,293.059021 138.258774,297.418457 
	C138.597519,301.846100 141.584290,304.519348 146.944397,305.192291 
z"/>
<path fill="#AAAEB4" opacity="1.000000" stroke="none" 
	d="
M146.447205,251.879715 
	C146.881622,252.962494 146.929199,254.067871 146.556335,255.618668 
	C140.647537,257.838776 137.921387,261.075623 138.254440,265.422028 
	C138.593948,269.852600 141.574295,272.522125 146.941055,273.202728 
	C151.240051,273.618713 153.569122,271.243622 155.352402,267.667847 
	C155.994766,266.379791 157.567169,265.555573 159.523468,263.790253 
	C159.627792,272.403595 155.980087,276.261688 147.316101,278.058960 
	C138.389267,276.596497 133.838638,271.824188 133.998062,264.567688 
	C134.146545,257.809082 138.718094,253.008972 146.447205,251.879715 
z"/>
<path fill="#AAAEB4" opacity="1.000000" stroke="none" 
	d="
M146.936752,241.209991 
	C151.236313,241.624817 153.569855,239.254730 155.350815,235.673111 
	C155.992081,234.383514 157.564224,233.556793 159.518402,231.788895 
	C159.639328,240.393158 155.987762,244.260117 147.317612,246.068848 
	C138.373657,244.589188 133.837265,239.830353 133.997879,232.572037 
	C134.147461,225.812271 138.728348,221.004776 146.450989,219.887482 
	C146.884125,220.969223 146.930389,222.072342 146.556610,223.621216 
	C140.636276,225.853287 137.919785,229.077911 138.252640,233.425552 
	C138.591614,237.853027 141.584641,240.535980 146.936752,241.209991 
z"/>
<path fill="#AAAEB4" opacity="1.000000" stroke="none" 
	d="
M146.974701,209.300217 
	C151.212921,209.547302 153.614456,207.267365 155.367004,203.649734 
	C155.989014,202.365753 157.584869,201.553543 159.548599,199.800842 
	C159.604584,208.435730 155.962677,212.284744 147.318298,214.076752 
	C138.372452,212.581589 133.839035,207.825394 133.997482,200.578156 
	C134.144943,193.834167 138.739227,189.010376 146.446838,187.888062 
	C146.880920,188.970932 146.928772,190.078156 146.556915,191.630005 
	C140.543610,193.870941 137.759491,197.304626 138.293213,201.748764 
	C138.821671,206.149155 141.836151,208.771240 146.974701,209.300217 
z"/>
<path fill="#AAAEB4" opacity="1.000000" stroke="none" 
	d="
M146.450165,155.885529 
	C146.883530,156.969345 146.930115,158.077286 146.557587,159.631592 
	C140.535538,161.886261 137.758408,165.312012 138.293640,169.754974 
	C138.824295,174.159927 141.825607,176.772156 146.974411,177.310394 
	C151.207199,177.545380 153.621140,175.283371 155.370590,171.655243 
	C155.995422,170.359360 157.603271,169.537460 159.543549,167.799576 
	C159.619949,176.422852 155.965836,180.287247 147.319336,182.081055 
	C138.375061,180.596588 133.836090,175.834305 133.997955,168.580765 
	C134.148575,161.830902 138.729919,157.019562 146.450165,155.885529 
z"/>
<path fill="#AAAEB4" opacity="1.000000" stroke="none" 
	d="
M146.457581,123.897156 
	C146.885422,124.984612 146.931000,126.095505 146.557312,127.648499 
	C140.546967,129.867126 137.757950,133.303986 138.294006,137.756683 
	C138.824203,142.160919 141.817688,144.772446 146.969269,145.325012 
	C151.205154,145.558609 153.617905,143.288452 155.366882,139.661819 
	C155.987411,138.375153 157.578873,137.556702 159.538223,135.795303 
	C159.625275,144.421204 155.946198,148.315659 147.320328,150.084442 
	C138.570831,148.643051 134.078476,144.106110 133.998932,137.091736 
	C133.919479,130.085770 138.330307,125.275093 146.457581,123.897156 
z"/>
<path fill="#E6E7E7" opacity="1.000000" stroke="none" 
	d="
M242.355194,271.505676 
	C249.602173,243.708191 276.729980,227.830887 304.371216,234.861572 
	C328.814545,241.078842 347.737152,268.581573 340.143951,296.826813 
	C333.074951,323.122131 305.719360,339.386353 278.605560,332.626434 
	C252.115067,326.021881 235.927444,298.987915 242.355194,271.505676 
M276.608978,273.595825 
	C280.758484,270.890137 281.485443,267.500671 279.145599,263.089233 
	C277.689575,260.344147 276.773834,257.305054 275.697479,254.367920 
	C274.289642,250.526260 271.805878,249.257462 267.231384,250.911850 
	C261.066956,252.728195 257.755737,256.124603 258.167358,262.209747 
	C258.517548,267.386719 259.534271,272.858429 261.722565,277.509827 
	C269.407318,293.844452 281.702850,305.990662 298.091766,313.546997 
	C302.613068,315.631592 307.949005,316.571594 312.967255,316.799011 
	C319.254395,317.083893 322.942993,313.232849 324.347015,306.381500 
	C325.498993,302.407684 323.963928,300.037567 320.078918,298.826050 
	C317.706055,298.086121 315.310730,297.241272 313.146881,296.043579 
	C308.125519,293.264343 304.048950,293.770844 300.161438,298.988739 
	C292.446838,298.715942 276.437042,283.552399 275.882782,275.963470 
	C275.835388,275.314667 276.012146,274.649506 276.608978,273.595825 
z"/>
<path fill="#4C90C2" opacity="1.000000" stroke="none" 
	d="
M146.981506,208.810074 
	C141.836151,208.771240 138.821671,206.149155 138.293213,201.748764 
	C137.759491,197.304626 140.543610,193.870941 146.493423,192.039978 
	C146.895844,197.443527 146.942062,202.881729 146.981506,208.810074 
z"/>
<path fill="#4C90C2" opacity="1.000000" stroke="none" 
	d="
M146.981293,176.819427 
	C141.825607,176.772156 138.824295,174.159927 138.293640,169.754974 
	C137.758408,165.312012 140.535538,161.886261 146.494293,160.041779 
	C146.896164,165.446564 146.942169,170.887497 146.981293,176.819427 
z"/>
<path fill="#4C90C2" opacity="1.000000" stroke="none" 
	d="
M146.977783,144.832977 
	C141.817688,144.772446 138.824203,142.160919 138.294006,137.756683 
	C137.757950,133.303986 140.546967,129.867126 146.494049,128.059937 
	C146.895447,133.466507 146.940887,138.903732 146.977783,144.832977 
z"/>
<path fill="#4C90C2" opacity="1.000000" stroke="none" 
	d="
M146.954269,240.724365 
	C141.584641,240.535980 138.591614,237.853027 138.252640,233.425552 
	C137.919785,229.077911 140.636276,225.853287 146.492828,224.029572 
	C146.889984,229.407700 146.930893,234.823212 146.954269,240.724365 
z"/>
<path fill="#4C90C2" opacity="1.000000" stroke="none" 
	d="
M146.957245,272.717712 
	C141.574295,272.522125 138.593948,269.852600 138.254440,265.422028 
	C137.921387,261.075623 140.647537,257.838776 146.492493,256.027802 
	C146.890533,261.405243 146.931976,266.818970 146.957245,272.717712 
z"/>
<path fill="#4B90C2" opacity="1.000000" stroke="none" 
	d="
M146.959778,304.708191 
	C141.584290,304.519348 138.597519,301.846100 138.258774,297.418457 
	C137.925247,293.059021 140.631866,289.846100 146.493530,288.031067 
	C146.891815,293.405060 146.933472,298.814575 146.959778,304.708191 
z"/>
<path fill="#4B90C2" opacity="1.000000" stroke="none" 
	d="
M146.962296,336.700928 
	C141.586151,336.522217 138.601929,333.854584 138.259186,329.417297 
	C137.922607,325.059723 140.641403,321.832153 146.492950,320.030731 
	C146.891968,325.402649 146.934250,330.810089 146.962296,336.700928 
z"/>
<path fill="#4B90C2" opacity="1.000000" stroke="none" 
	d="
M146.964600,368.696747 
	C141.589920,368.518555 138.601059,365.848511 138.258881,361.414520 
	C137.921982,357.049194 140.635529,353.828186 146.492798,352.029633 
	C146.892410,357.401123 146.935135,362.807404 146.964600,368.696747 
z"/>
<path fill="#BB9B45" opacity="1.000000" stroke="none" 
	d="
M324.015045,307.014038 
	C322.942993,313.232849 319.254395,317.083893 312.967255,316.799011 
	C307.949005,316.571594 302.613068,315.631592 298.091766,313.546997 
	C281.702850,305.990662 269.407318,293.844452 261.722565,277.509827 
	C259.534271,272.858429 258.517548,267.386719 258.167358,262.209747 
	C257.755737,256.124603 261.066956,252.728195 267.635376,251.308716 
	C270.721130,259.134369 273.402954,266.563141 276.084778,273.991943 
	C276.012146,274.649506 275.835388,275.314667 275.882782,275.963470 
	C276.437042,283.552399 292.446838,298.715942 300.938782,298.995117 
	C309.149109,301.672333 316.582062,304.343170 324.015045,307.014038 
z"/>
<path fill="#D6B45A" opacity="1.000000" stroke="none" 
	d="
M324.181030,306.697754 
	C316.582062,304.343170 309.149109,301.672333 301.334900,298.943054 
	C304.048950,293.770844 308.125519,293.264343 313.146881,296.043579 
	C315.310730,297.241272 317.706055,298.086121 320.078918,298.826050 
	C323.963928,300.037567 325.498993,302.407684 324.181030,306.697754 
z"/>
<path fill="#D6B55A" opacity="1.000000" stroke="none" 
	d="
M276.346863,273.793884 
	C273.402954,266.563141 270.721130,259.134369 268.008911,251.325790 
	C271.805878,249.257462 274.289642,250.526260 275.697479,254.367920 
	C276.773834,257.305054 277.689575,260.344147 279.145599,263.089233 
	C281.485443,267.500671 280.758484,270.890137 276.346863,273.793884 
z"/>
</svg>