<svg width="2408" height="882" viewBox="0 0 2408 882" fill="none" xmlns="http://www.w3.org/2000/svg">
<rect x="2408" y="882" width="2408" height="882" transform="rotate(-180 2408 882)" fill="#F8F8FF"/>
<rect x="392" y="539.342" width="312.82" height="84.0252" rx="32.8957" fill="#4450FF"/>
<rect x="392" y="427.918" width="219.523" height="84.0252" rx="32.8957" fill="#4450FF"/>
<rect x="392" y="316.493" width="129.884" height="84.0252" rx="32.8957" fill="#4450FF"/>
<path fill-rule="evenodd" clip-rule="evenodd" d="M770.678 320.146C770.678 338.305 755.935 353.025 737.749 353.025L521.885 353.025V349.372C521.885 331.213 507.142 316.493 488.957 316.493H457.857L457.857 301.879C457.857 283.721 472.6 269 490.786 269L737.749 269C755.935 269 770.678 283.721 770.678 301.879V320.146ZM770.678 431.571C770.678 449.729 755.935 464.45 737.749 464.45L611.524 464.45V460.797C611.524 442.638 596.781 427.918 578.595 427.918H551.155V413.304C551.155 395.145 565.897 380.425 584.083 380.425L737.749 380.425C755.935 380.425 770.678 395.145 770.678 413.304V431.571ZM551.155 431.571C551.155 431.571 551.155 431.571 551.155 431.571C551.155 431.571 551.155 431.571 551.155 431.571L551.155 431.571ZM737.749 575.875C755.935 575.875 770.678 561.154 770.678 542.995V524.729C770.678 506.57 755.935 491.85 737.749 491.85L673.722 491.85C655.536 491.85 640.793 506.57 640.793 524.729L640.793 539.342H671.892C690.078 539.342 704.821 554.063 704.821 572.222V575.875L737.749 575.875Z" fill="#FCB236"/>
<path d="M984.689 316.357C961.43 316.357 943.697 328.315 936.328 346.251V327.625C936.328 320.956 931.261 317.737 926.425 317.737C921.358 317.737 916.292 321.186 916.292 327.625V470.117C916.292 476.786 921.358 480.235 926.425 480.235C931.491 480.235 936.328 476.786 936.328 470.117V411.327C945.539 429.033 963.272 439.381 983.768 439.381C1020.15 439.381 1044.11 413.167 1044.11 378.214C1044.11 343.492 1020.62 316.357 984.689 316.357ZM979.853 421.445C954.521 421.445 936.558 402.129 936.558 377.984C936.558 353.379 954.751 334.294 979.853 334.294C1005.42 334.294 1023.84 352.69 1023.84 377.984C1023.84 403.049 1005.42 421.445 979.853 421.445Z" fill="#4450FF"/>
<path d="M1177.54 318.886C1172.47 318.886 1167.17 322.105 1167.17 328.774V344.87C1158.19 327.394 1140.46 316.816 1119.96 316.816C1083.58 316.816 1059.62 343.031 1059.62 378.213C1059.62 412.706 1082.88 440.07 1119.04 440.07C1143.22 440.07 1160.26 427.423 1167.17 409.947V429.033C1167.17 435.471 1172.47 438.921 1177.54 438.921C1182.6 438.921 1187.67 435.471 1187.67 429.033V328.774C1187.67 322.105 1182.6 318.886 1177.54 318.886ZM1123.65 422.134C1098.31 422.134 1079.89 403.738 1079.89 378.443C1079.89 353.149 1098.31 334.983 1123.65 334.983C1148.98 334.983 1167.17 354.069 1167.17 378.443C1167.17 403.048 1148.98 422.134 1123.65 422.134Z" fill="#4450FF"/>
<path d="M1217.2 428.803C1217.2 435.241 1222.27 438.691 1227.34 438.691C1232.17 438.691 1237.24 435.241 1237.24 428.803V267.888C1237.24 261.449 1232.4 258 1227.34 258C1222.27 258 1217.2 261.449 1217.2 267.888V428.803Z" fill="#4450FF"/>
<path d="M1394.97 316.816C1376.55 316.816 1362.96 325.555 1356.51 340.961C1350.52 323.945 1336.7 316.816 1321.5 316.816C1305.15 316.816 1293.18 324.635 1286.73 338.202V328.084C1286.73 321.645 1281.89 318.426 1276.83 318.426C1271.53 318.426 1266.46 321.875 1266.46 328.544V428.573C1266.46 435.011 1271.53 438.691 1276.6 438.691C1281.66 438.691 1286.73 435.011 1286.73 428.573V369.475C1287.19 347.4 1298.01 334.293 1315.75 334.293C1329.33 334.293 1342 342.341 1342 367.636V428.343C1342 435.011 1347.07 438.691 1352.36 438.691C1357.43 438.691 1362.5 435.011 1362.5 428.343V369.475C1362.5 347.86 1373.32 334.293 1391.28 334.293C1404.87 334.293 1417.54 342.341 1417.54 367.636V428.343C1417.54 435.241 1422.83 438.691 1427.67 438.691C1432.74 438.691 1438.03 435.241 1438.03 428.343V364.646C1438.03 330.843 1417.77 316.816 1394.97 316.816Z" fill="#4450FF"/>
<path d="M1579.2 318.841C1574.14 318.841 1568.84 322.06 1568.84 328.729V344.826C1559.86 327.349 1542.13 316.772 1521.63 316.772C1485.24 316.772 1461.29 342.986 1461.29 378.169C1461.29 412.661 1484.55 440.025 1520.71 440.025C1544.89 440.025 1561.93 427.378 1568.84 409.902V428.988C1568.84 435.426 1574.14 438.876 1579.2 438.876C1584.27 438.876 1589.34 435.426 1589.34 428.988V328.729C1589.34 322.06 1584.27 318.841 1579.2 318.841ZM1525.31 422.089C1499.98 422.089 1481.56 403.693 1481.56 378.398C1481.56 353.104 1499.98 334.938 1525.31 334.938C1550.65 334.938 1568.84 354.024 1568.84 378.398C1568.84 403.003 1550.65 422.089 1525.31 422.089Z" fill="#4450FF"/>
<path d="M1716.52 318.381C1711.68 318.381 1706.38 321.601 1706.38 328.499V384.147C1705.92 409.442 1691.64 422.779 1670.69 422.779C1653.65 422.779 1637.29 413.811 1637.29 386.217V328.729C1637.29 321.83 1632.23 318.381 1627.16 318.381C1622.09 318.381 1617.03 321.83 1617.03 328.729V388.976C1617.03 425.309 1639.6 440.025 1664.93 440.025C1684.73 440.025 1698.78 431.287 1706.38 415.881V428.528C1706.38 434.967 1711.45 438.646 1716.52 438.646C1721.58 438.646 1726.65 435.196 1726.65 428.528V328.499C1726.65 321.601 1721.58 318.381 1716.52 318.381Z" fill="#4450FF"/>
<path d="M1785.3 319.301V294.236C1785.3 287.568 1780.24 284.348 1775.4 284.348C1770.57 284.348 1765.27 287.568 1765.27 294.236V319.301H1754.68C1750.3 319.301 1746.62 322.98 1746.62 327.349C1746.62 331.488 1750.3 335.168 1754.68 335.168H1765.27V428.758C1765.27 435.196 1770.34 438.646 1775.4 438.646C1780.24 438.646 1785.3 435.196 1785.3 428.758V335.168H1803.5C1807.64 335.168 1811.56 331.718 1811.56 327.349C1811.56 322.98 1807.87 319.301 1803.5 319.301H1785.3Z" fill="#4450FF"/>
<path d="M1842.43 301.595C1849.57 301.595 1855.33 295.846 1855.33 288.947C1855.33 281.819 1849.57 276.07 1842.43 276.07C1835.52 276.07 1829.76 281.819 1829.76 288.947C1829.76 295.846 1835.52 301.595 1842.43 301.595ZM1832.3 428.758C1832.3 435.196 1837.59 438.646 1842.43 438.646C1847.5 438.646 1852.56 435.196 1852.56 428.758V328.269C1852.56 321.601 1847.5 318.381 1842.43 318.381C1837.59 318.381 1832.3 321.601 1832.3 328.269V428.758Z" fill="#4450FF"/>
<path d="M1973.2 429.448C1976.66 427.148 1978.04 423.929 1978.04 420.709C1978.04 416.34 1975.27 412.201 1971.13 412.201C1970.16 412.201 1969.03 412.526 1967.74 413.174C1967.5 413.298 1967.24 413.434 1966.98 413.581C1958.23 419.1 1948.79 421.629 1939.58 421.629C1916.55 421.629 1895.82 405.303 1895.82 378.398C1895.82 350.344 1917.24 335.398 1939.81 335.398C1949.25 335.398 1959.15 338.157 1967.44 343.676C1968.83 344.596 1970.21 345.056 1971.59 345.056C1975.51 345.056 1978.5 341.376 1978.5 337.007C1978.5 333.788 1976.89 330.339 1973.2 327.809C1962.84 320.911 1949.94 317.231 1937.28 317.231C1906.65 317.231 1875.79 337.467 1875.79 378.398C1875.79 419.33 1906.65 439.795 1937.28 439.795C1949.94 439.795 1962.61 436.346 1973.2 429.448Z" fill="#4450FF"/>
<path d="M2000.21 393.659C1997.35 404.109 1991.75 413.638 1983.96 421.288C1976.16 428.938 1966.45 434.439 1955.81 437.239L1951.32 420.823C1959.04 418.795 1966.07 414.81 1971.71 409.27C1977.36 403.73 1981.42 396.829 1983.48 389.26L2000.21 393.659Z" fill="#4450FF"/>
<rect width="45.4198" height="13.5949" rx="6.79746" transform="matrix(0.966022 -0.258459 0.259179 0.965829 1959.33 387.188)" fill="#4450FF"/>
<rect width="43.9298" height="13.6125" rx="6.80015" transform="matrix(0.259179 0.965829 -0.966022 0.258459 2003.21 375.448)" fill="#4450FF"/>
<path d="M1678.13 498.036C1660.35 498.036 1647.71 508.02 1641.94 522.216V465.12C1641.94 462.78 1640.22 461.688 1638.66 461.688C1636.95 461.688 1635.23 462.78 1635.23 465.12V575.88C1635.23 578.064 1636.95 579.312 1638.66 579.312C1640.22 579.312 1641.94 578.064 1641.94 575.88V556.848C1648.18 571.2 1660.82 580.56 1677.98 580.56C1702.16 580.56 1719.16 563.244 1719.16 539.532C1719.16 515.82 1702.31 498.036 1678.13 498.036ZM1677.04 574.476C1656.6 574.476 1642.1 558.72 1642.1 539.376C1642.1 519.72 1656.6 504.12 1677.04 504.12C1697.48 504.12 1712.3 518.784 1712.3 539.376C1712.3 559.656 1697.48 574.476 1677.04 574.476ZM1812.66 499.596C1811.1 499.596 1809.39 500.688 1809.39 503.028V521.748C1803.15 507.396 1790.36 498.036 1773.35 498.036C1749.17 498.036 1732.17 515.352 1732.17 539.064C1732.17 562.776 1749.02 580.56 1773.2 580.56C1790.98 580.56 1803.62 570.576 1809.39 556.38V576.348C1809.39 578.532 1811.1 579.624 1812.66 579.624C1814.22 579.624 1816.1 578.532 1816.1 576.348V503.028C1816.1 500.688 1814.38 499.596 1812.66 499.596ZM1774.29 574.476C1753.85 574.476 1739.03 559.656 1739.03 539.22C1739.03 518.784 1753.85 504.12 1774.29 504.12C1794.72 504.12 1809.23 519.876 1809.23 539.22C1809.23 558.72 1794.72 574.476 1774.29 574.476ZM1864.82 580.56C1882.13 580.56 1893.37 573.072 1893.37 559.188C1893.37 530.484 1843.45 540.78 1843.45 518.472C1843.45 509.892 1851.56 503.808 1862.95 503.808C1872.77 503.808 1880.89 508.956 1884.47 518.316C1885.1 519.72 1886.03 520.344 1886.97 520.344C1888.37 520.344 1889.78 518.94 1889.78 516.912C1889.78 516.444 1889.62 515.976 1889.47 515.352C1885.72 504.588 1875.43 498.348 1862.95 498.348C1847.97 498.348 1836.89 506.46 1836.89 518.94C1836.89 546.24 1886.66 536.412 1886.66 559.5C1886.66 569.328 1878.23 574.944 1864.97 574.944C1852.34 574.944 1842.82 569.64 1839.23 558.72C1838.61 557.004 1837.52 556.224 1836.58 556.224C1835.02 556.224 1833.46 557.784 1833.46 559.968C1833.46 560.436 1833.62 561.06 1833.77 561.684C1837.99 574.008 1848.91 580.56 1864.82 580.56ZM1914.1 484.464C1917.07 484.464 1919.56 481.968 1919.56 479.004C1919.56 475.884 1917.07 473.388 1914.1 473.388C1910.98 473.388 1908.49 475.884 1908.49 479.004C1908.49 481.968 1910.98 484.464 1914.1 484.464ZM1910.67 575.88C1910.67 578.064 1912.39 579.312 1913.95 579.312C1915.66 579.312 1917.38 578.064 1917.38 575.88V502.56C1917.38 500.376 1915.66 499.284 1913.95 499.284C1912.39 499.284 1910.67 500.376 1910.67 502.56V575.88ZM2002.48 570.888C2003.57 569.952 2003.88 569.016 2003.88 568.08C2003.88 566.52 2002.79 565.116 2001.54 565.116C2000.92 565.116 2000.45 565.272 1999.98 565.74C1992.65 571.668 1984.38 574.32 1976.43 574.32C1958.33 574.32 1941.95 560.436 1941.95 539.22C1941.95 517.848 1958.8 504.276 1976.58 504.276C1984.85 504.276 1993.12 507.084 2000.3 513.168C2000.76 513.636 2001.39 513.792 2001.86 513.792C2003.26 513.792 2004.35 512.7 2004.35 511.14C2004.35 510.204 2003.88 509.112 2002.64 508.02C1994.84 501.312 1985.16 498.192 1975.8 498.192C1955.21 498.192 1935.24 513.324 1935.24 539.22C1935.24 565.428 1955.21 580.56 1975.96 580.56C1985.16 580.56 1994.68 577.44 2002.48 570.888Z" fill="#4450FF"/>
</svg>
