<?xml version="1.0" encoding="UTF-8"?>
<svg width="2408px" height="882px" viewBox="0 0 2408 882" xmlns="http://www.w3.org/2000/svg" xmlns:xlink="http://www.w3.org/1999/xlink" version="1.1">
 <!-- Generated by Pixelmator Pro 2.0.3 -->
 <path id="Путь" d="M2408 882 L0 882 0 0 2408 0 Z" fill="#4450ff" fill-opacity="1" stroke="none"/>
 <path id="Путь-1" d="M704.82 581.356 L704.82 590.472 C704.82 608.64 690.092 623.368 671.924 623.368 L424.896 623.368 C406.728 623.368 392 608.64 392 590.472 L392 572.239 C392 554.071 406.728 539.343 424.896 539.343 L671.924 539.343 C690.092 539.343 704.82 554.071 704.82 572.239 Z" fill="#dbdbff" fill-opacity="1" stroke="none"/>
 <path id="Путь-2" d="M611.523 469.931 L611.523 479.047 C611.523 497.215 596.795 511.943 578.627 511.943 L424.896 511.943 C406.728 511.943 392 497.215 392 479.047 L392 460.814 C392 442.646 406.728 427.918 424.896 427.918 L578.627 427.918 C596.795 427.918 611.523 442.646 611.523 460.814 Z" fill="#dbdbff" fill-opacity="1" stroke="none"/>
 <path id="Путь-3" d="M521.884 358.506 L521.884 367.622 C521.884 385.79 507.156 400.518 488.988 400.518 L424.896 400.518 C406.728 400.518 392 385.79 392 367.622 L392 349.389 C392 331.221 406.728 316.493 424.896 316.493 L488.988 316.493 C507.156 316.493 521.884 331.221 521.884 349.389 Z" fill="#dbdbff" fill-opacity="1" stroke="none"/>
 <path id="Путь-4" d="M770.678 320.146 C770.678 338.305 755.935 353.025 737.749 353.025 L521.885 353.025 521.885 349.372 C521.885 331.213 507.142 316.493 488.957 316.493 L457.857 316.493 457.857 301.879 C457.857 283.721 472.6 269 490.786 269 L737.749 269 C755.935 269 770.678 283.721 770.678 301.879 Z M770.678 431.571 C770.678 449.729 755.935 464.45 737.749 464.45 L611.524 464.45 611.524 460.797 C611.524 442.638 596.781 427.918 578.595 427.918 L551.155 427.918 551.155 413.304 C551.155 395.145 565.897 380.425 584.083 380.425 L737.749 380.425 C755.935 380.425 770.678 395.145 770.678 413.304 Z M737.749 575.875 C755.935 575.875 770.678 561.154 770.678 542.995 L770.678 524.729 C770.678 506.57 755.935 491.85 737.749 491.85 L673.722 491.85 C655.536 491.85 640.793 506.57 640.793 524.729 L640.793 539.342 671.892 539.342 C690.078 539.342 704.821 554.063 704.821 572.222 L704.821 575.875 Z" fill="#ffffff" fill-opacity="1" stroke="none"/>
 <path id="Путь-5" d="M984.689 316.357 C961.43 316.357 943.697 328.315 936.328 346.251 L936.328 327.625 C936.328 320.956 931.261 317.737 926.425 317.737 921.358 317.737 916.292 321.186 916.292 327.625 L916.292 470.117 C916.292 476.786 921.358 480.235 926.425 480.235 931.491 480.235 936.328 476.786 936.328 470.117 L936.328 411.327 C945.539 429.033 963.272 439.381 983.768 439.381 1020.15 439.381 1044.11 413.167 1044.11 378.214 1044.11 343.492 1020.62 316.357 984.689 316.357 Z M979.853 421.445 C954.521 421.445 936.558 402.129 936.558 377.984 936.558 353.379 954.751 334.294 979.853 334.294 1005.42 334.294 1023.84 352.69 1023.84 377.984 1023.84 403.049 1005.42 421.445 979.853 421.445 Z" fill="#ffffff" fill-opacity="1" stroke="none"/>
 <path id="Путь-6" d="M1177.54 318.886 C1172.47 318.886 1167.17 322.105 1167.17 328.774 L1167.17 344.87 C1158.19 327.394 1140.46 316.816 1119.96 316.816 1083.58 316.816 1059.62 343.031 1059.62 378.213 1059.62 412.706 1082.88 440.07 1119.04 440.07 1143.22 440.07 1160.26 427.423 1167.17 409.947 L1167.17 429.033 C1167.17 435.471 1172.47 438.921 1177.54 438.921 1182.6 438.921 1187.67 435.471 1187.67 429.033 L1187.67 328.774 C1187.67 322.105 1182.6 318.886 1177.54 318.886 Z M1123.65 422.134 C1098.31 422.134 1079.89 403.738 1079.89 378.443 1079.89 353.149 1098.31 334.983 1123.65 334.983 1148.98 334.983 1167.17 354.069 1167.17 378.443 1167.17 403.048 1148.98 422.134 1123.65 422.134 Z" fill="#ffffff" fill-opacity="1" stroke="none"/>
 <path id="Путь-7" d="M1217.2 428.803 C1217.2 435.241 1222.27 438.691 1227.34 438.691 1232.17 438.691 1237.24 435.241 1237.24 428.803 L1237.24 267.888 C1237.24 261.449 1232.4 258 1227.34 258 1222.27 258 1217.2 261.449 1217.2 267.888 Z" fill="#ffffff" fill-opacity="1" stroke="none"/>
 <path id="Путь-8" d="M1394.97 316.816 C1376.55 316.816 1362.96 325.555 1356.51 340.961 1350.52 323.945 1336.7 316.816 1321.5 316.816 1305.15 316.816 1293.18 324.635 1286.73 338.202 L1286.73 328.084 C1286.73 321.645 1281.89 318.426 1276.83 318.426 1271.53 318.426 1266.46 321.875 1266.46 328.544 L1266.46 428.573 C1266.46 435.011 1271.53 438.691 1276.6 438.691 1281.66 438.691 1286.73 435.011 1286.73 428.573 L1286.73 369.475 C1287.19 347.4 1298.01 334.293 1315.75 334.293 1329.33 334.293 1342 342.341 1342 367.636 L1342 428.343 C1342 435.011 1347.07 438.691 1352.36 438.691 1357.43 438.691 1362.5 435.011 1362.5 428.343 L1362.5 369.475 C1362.5 347.86 1373.32 334.293 1391.28 334.293 1404.87 334.293 1417.54 342.341 1417.54 367.636 L1417.54 428.343 C1417.54 435.241 1422.83 438.691 1427.67 438.691 1432.74 438.691 1438.03 435.241 1438.03 428.343 L1438.03 364.646 C1438.03 330.843 1417.77 316.816 1394.97 316.816 Z" fill="#ffffff" fill-opacity="1" stroke="none"/>
 <path id="Путь-9" d="M1579.2 318.841 C1574.14 318.841 1568.84 322.06 1568.84 328.729 L1568.84 344.826 C1559.86 327.349 1542.13 316.772 1521.63 316.772 1485.24 316.772 1461.29 342.986 1461.29 378.169 1461.29 412.661 1484.55 440.025 1520.71 440.025 1544.89 440.025 1561.93 427.378 1568.84 409.902 L1568.84 428.988 C1568.84 435.426 1574.14 438.876 1579.2 438.876 1584.27 438.876 1589.34 435.426 1589.34 428.988 L1589.34 328.729 C1589.34 322.06 1584.27 318.841 1579.2 318.841 Z M1525.31 422.089 C1499.98 422.089 1481.56 403.693 1481.56 378.398 1481.56 353.104 1499.98 334.938 1525.31 334.938 1550.65 334.938 1568.84 354.024 1568.84 378.398 1568.84 403.003 1550.65 422.089 1525.31 422.089 Z" fill="#ffffff" fill-opacity="1" stroke="none"/>
 <path id="Путь-10" d="M1716.52 318.381 C1711.68 318.381 1706.38 321.601 1706.38 328.499 L1706.38 384.147 C1705.92 409.442 1691.64 422.779 1670.69 422.779 1653.65 422.779 1637.29 413.811 1637.29 386.217 L1637.29 328.729 C1637.29 321.83 1632.23 318.381 1627.16 318.381 1622.09 318.381 1617.03 321.83 1617.03 328.729 L1617.03 388.976 C1617.03 425.309 1639.6 440.025 1664.93 440.025 1684.73 440.025 1698.78 431.287 1706.38 415.881 L1706.38 428.528 C1706.38 434.967 1711.45 438.646 1716.52 438.646 1721.58 438.646 1726.65 435.196 1726.65 428.528 L1726.65 328.499 C1726.65 321.601 1721.58 318.381 1716.52 318.381 Z" fill="#ffffff" fill-opacity="1" stroke="none"/>
 <path id="Путь-11" d="M1785.3 319.301 L1785.3 294.236 C1785.3 287.568 1780.24 284.348 1775.4 284.348 1770.57 284.348 1765.27 287.568 1765.27 294.236 L1765.27 319.301 1754.68 319.301 C1750.3 319.301 1746.62 322.98 1746.62 327.349 1746.62 331.488 1750.3 335.168 1754.68 335.168 L1765.27 335.168 1765.27 428.758 C1765.27 435.196 1770.34 438.646 1775.4 438.646 1780.24 438.646 1785.3 435.196 1785.3 428.758 L1785.3 335.168 1803.5 335.168 C1807.64 335.168 1811.56 331.718 1811.56 327.349 1811.56 322.98 1807.87 319.301 1803.5 319.301 Z" fill="#ffffff" fill-opacity="1" stroke="none"/>
 <path id="Путь-12" d="M1842.43 301.595 C1849.57 301.595 1855.33 295.846 1855.33 288.947 1855.33 281.819 1849.57 276.07 1842.43 276.07 1835.52 276.07 1829.76 281.819 1829.76 288.947 1829.76 295.846 1835.52 301.595 1842.43 301.595 Z M1832.3 428.758 C1832.3 435.196 1837.59 438.646 1842.43 438.646 1847.5 438.646 1852.56 435.196 1852.56 428.758 L1852.56 328.269 C1852.56 321.601 1847.5 318.381 1842.43 318.381 1837.59 318.381 1832.3 321.601 1832.3 328.269 Z" fill="#ffffff" fill-opacity="1" stroke="none"/>
 <path id="Путь-13" d="M1973.2 429.448 C1976.66 427.148 1978.04 423.929 1978.04 420.709 1978.04 416.34 1975.27 412.201 1971.13 412.201 1970.16 412.201 1969.03 412.526 1967.74 413.174 1967.5 413.298 1967.24 413.434 1966.98 413.581 1958.23 419.1 1948.79 421.629 1939.58 421.629 1916.55 421.629 1895.82 405.303 1895.82 378.398 1895.82 350.344 1917.24 335.398 1939.81 335.398 1949.25 335.398 1959.15 338.157 1967.44 343.676 1968.83 344.596 1970.21 345.056 1971.59 345.056 1975.51 345.056 1978.5 341.376 1978.5 337.007 1978.5 333.788 1976.89 330.339 1973.2 327.809 1962.84 320.911 1949.94 317.231 1937.28 317.231 1906.65 317.231 1875.79 337.467 1875.79 378.398 1875.79 419.33 1906.65 439.795 1937.28 439.795 1949.94 439.795 1962.61 436.346 1973.2 429.448 Z" fill="#ffffff" fill-opacity="1" stroke="none"/>
 <path id="Путь-14" d="M2000.21 393.659 C1997.35 404.109 1991.75 413.638 1983.96 421.288 1976.16 428.938 1966.45 434.439 1955.81 437.239 L1951.32 420.823 C1959.04 418.795 1966.07 414.81 1971.71 409.27 1977.36 403.73 1981.42 396.829 1983.48 389.26 Z" fill="#ffffff" fill-opacity="1" stroke="none"/>
 <path id="Путь-15" d="M2004.968 382.014 L2004.968 382.014 C2005.941 385.64 2003.79 389.366 2000.163 390.336 L1969.42 398.561 C1965.793 399.532 1962.065 397.379 1961.092 393.753 L1961.092 393.753 C1960.119 390.127 1962.27 386.401 1965.896 385.431 L1996.64 377.206 C2000.267 376.235 2003.995 378.388 2004.968 382.014 Z" fill="#ffffff" fill-opacity="1" stroke="none"/>
 <path id="Путь-16" d="M2008.021 419.636 L2008.015 419.637 C2004.387 420.608 2000.657 418.454 1999.683 414.827 L1991.822 385.534 C1990.849 381.907 1993.001 378.179 1996.629 377.209 L1996.641 377.206 C2000.269 376.235 2003.999 378.388 2004.972 382.016 L2012.833 411.309 C2013.807 414.936 2011.655 418.664 2008.026 419.634 Z" fill="#ffffff" fill-opacity="1" stroke="none"/>
 <path id="Путь-копия" d="M1679.132 498.036 C1661.348 498.036 1648.712 508.02 1642.94 522.216 L1642.94 465.12 C1642.94 462.78 1641.224 461.688 1639.664 461.688 1637.948 461.688 1636.232 462.78 1636.232 465.12 L1636.232 575.88 C1636.232 578.064 1637.948 579.312 1639.664 579.312 1641.224 579.312 1642.94 578.064 1642.94 575.88 L1642.94 556.848 C1649.18 571.2 1661.816 580.56 1678.976 580.56 1703.156 580.56 1720.16 563.244 1720.16 539.532 1720.16 515.82 1703.312 498.036 1679.132 498.036 Z M1678.04 574.476 C1657.604 574.476 1643.096 558.72 1643.096 539.376 1643.096 519.72 1657.604 504.12 1678.04 504.12 1698.476 504.12 1713.296 518.784 1713.296 539.376 1713.296 559.656 1698.476 574.476 1678.04 574.476 Z M1813.66 499.596 C1812.1 499.596 1810.39 500.688 1810.39 503.028 L1810.39 521.748 C1804.149 507.396 1791.357 498.036 1774.353 498.036 1750.173 498.036 1733.169 515.352 1733.169 539.064 1733.169 562.776 1750.017 580.56 1774.197 580.56 1791.981 580.56 1804.617 570.576 1810.39 556.38 L1810.39 576.348 C1810.39 578.532 1812.1 579.624 1813.66 579.624 1815.22 579.624 1817.1 578.532 1817.1 576.348 L1817.1 503.028 C1817.1 500.688 1815.38 499.596 1813.66 499.596 Z M1775.289 574.476 C1754.853 574.476 1740.033 559.656 1740.033 539.22 1740.033 518.784 1754.853 504.12 1775.289 504.12 1795.725 504.12 1810.23 519.876 1810.23 539.22 1810.23 558.72 1795.725 574.476 1775.289 574.476 Z M1865.82 580.56 C1883.13 580.56 1894.37 573.072 1894.37 559.188 1894.37 530.484 1844.45 540.78 1844.45 518.472 1844.45 509.892 1852.56 503.808 1863.95 503.808 1873.77 503.808 1881.89 508.956 1885.47 518.316 1886.1 519.72 1887.03 520.344 1887.97 520.344 1889.37 520.344 1890.78 518.94 1890.78 516.912 1890.78 516.444 1890.62 515.976 1890.47 515.352 1886.72 504.588 1876.43 498.348 1863.95 498.348 1848.97 498.348 1837.89 506.46 1837.89 518.94 1837.89 546.24 1887.66 536.412 1887.66 559.5 1887.66 569.328 1879.23 574.944 1865.97 574.944 1853.34 574.944 1843.82 569.64 1840.23 558.72 1839.61 557.004 1838.52 556.224 1837.58 556.224 1836.02 556.224 1834.46 557.784 1834.46 559.968 1834.46 560.436 1834.62 561.06 1834.77 561.684 1838.99 574.008 1849.91 580.56 1865.82 580.56 Z M1915.1 484.464 C1918.07 484.464 1920.56 481.968 1920.56 479.004 1920.56 475.884 1918.07 473.388 1915.1 473.388 1911.98 473.388 1909.49 475.884 1909.49 479.004 1909.49 481.968 1911.98 484.464 1915.1 484.464 Z M1911.67 575.88 C1911.67 578.064 1913.39 579.312 1914.95 579.312 1916.66 579.312 1918.38 578.064 1918.38 575.88 L1918.38 502.56 C1918.38 500.376 1916.66 499.284 1914.95 499.284 1913.39 499.284 1911.67 500.376 1911.67 502.56 Z M2003.48 570.888 C2004.57 569.952 2004.88 569.016 2004.88 568.08 2004.88 566.52 2003.79 565.116 2002.54 565.116 2001.92 565.116 2001.45 565.272 2000.98 565.74 1993.65 571.668 1985.38 574.32 1977.43 574.32 1959.33 574.32 1942.95 560.436 1942.95 539.22 1942.95 517.848 1959.8 504.276 1977.58 504.276 1985.85 504.276 1994.12 507.084 2001.3 513.168 2001.76 513.636 2002.39 513.792 2002.86 513.792 2004.26 513.792 2005.35 512.7 2005.35 511.14 2005.35 510.204 2004.88 509.112 2003.64 508.02 1995.84 501.312 1986.16 498.192 1976.8 498.192 1956.21 498.192 1936.24 513.324 1936.24 539.22 1936.24 565.428 1956.21 580.56 1976.96 580.56 1986.16 580.56 1995.68 577.44 2003.48 570.888 Z" fill="#f8f8ff" fill-opacity="1" stroke="none"/>
</svg>
