<?xml version="1.0" standalone="no"?>
<!DOCTYPE svg PUBLIC "-//W3C//DTD SVG 20010904//EN"
 "http://www.w3.org/TR/2001/REC-SVG-20010904/DTD/svg10.dtd">
<svg version="1.0" xmlns="http://www.w3.org/2000/svg"
 width="512.000000pt" height="512.000000pt" viewBox="0 0 512.000000 512.000000"
 preserveAspectRatio="xMidYMid meet">

<g transform="translate(0.000000,512.000000) scale(0.100000,-0.100000)">
<path d="M2150 4824 c-513 -37 -983 -244 -1373 -603 -33 -31 -102 -105 -154
-165 -273 -319 -445 -696 -510 -1116 -24 -159 -24 -492 1 -645 40 -252 103
-449 211 -665 215 -428 554 -768 980 -982 325 -164 619 -232 995 -232 377 0
684 73 1010 240 875 448 1347 1427 1154 2394 -28 139 -52 230 -64 244 -5 5
-461 -442 -1017 -996 -731 -729 -1017 -1008 -1042 -1017 -46 -15 -84 -14 -129
4 -26 11 -261 240 -785 763 -412 411 -755 760 -763 775 -20 37 -20 127 0 164
25 47 327 341 368 358 48 19 99 19 146 0 25 -11 203 -182 572 -550 l535 -535
869 870 c803 803 868 871 855 887 -251 300 -551 519 -903 658 -135 54 -334
107 -487 129 -106 16 -370 27 -469 20z"/>
</g>
</svg>
