<svg version="1.1" id="Layer_1" xmlns="http://www.w3.org/2000/svg" xmlns:xlink="http://www.w3.org/1999/xlink" x="0px" y="0px"
	 width="100%" viewBox="0 0 835 835" enable-background="new 0 0 835 835" xml:space="preserve">
<path opacity="1.000000" stroke="none" 
	d="
M375.000000,0.999995 
	C403.687561,1.000000 432.375122,1.000000 461.227753,1.380210 
	C462.239380,2.172279 463.049591,2.827298 463.937866,2.959908 
	C479.962555,5.352327 496.277832,6.520113 511.958496,10.315041 
	C532.105896,15.190974 551.926147,21.644184 571.531799,28.443192 
	C582.267395,32.166191 592.480713,37.606621 602.556396,42.973175 
	C618.491272,51.460537 634.716614,59.630081 649.700256,69.613319 
	C665.285034,79.997108 679.647034,92.241982 694.331238,103.939728 
	C700.778687,109.075882 707.021790,114.557388 712.784851,120.443062 
	C721.766907,129.616241 730.411743,139.134140 738.911438,148.760345 
	C745.156311,155.832901 751.312012,163.043930 756.830200,170.682556 
	C762.955139,179.161118 768.488892,188.086456 773.953430,197.017151 
	C779.990906,206.884171 786.044128,216.777206 791.373047,227.031738 
	C796.273987,236.462448 800.399170,246.313507 804.540833,256.116791 
	C808.890991,266.413483 813.691101,276.630646 816.793945,287.318207 
	C821.580933,303.806793 825.359863,320.607178 829.039368,337.390869 
	C831.217529,347.326019 832.342346,357.490173 834.070435,367.529022 
	C834.226685,368.436493 835.334229,369.180237 836.000000,370.000000 
	C836.000000,402.354218 836.000000,434.708466 835.625244,467.228088 
	C834.167908,473.395172 833.162781,479.412109 831.986145,485.395325 
	C829.717957,496.929199 827.741089,508.539856 824.926086,519.941589 
	C821.669373,533.132935 818.347839,546.388611 813.749878,559.146240 
	C808.990601,572.351501 803.161499,585.239075 796.901550,597.818237 
	C789.309143,613.074890 781.348816,628.213379 772.471436,642.745544 
	C765.056702,654.883362 756.208801,666.160217 747.762634,677.647095 
	C743.591309,683.320312 739.218567,688.916260 734.367126,694.003662 
	C724.522705,704.326843 714.554199,714.561951 704.144653,724.307556 
	C693.608093,734.172119 683.167969,744.377014 671.445068,752.681702 
	C653.668274,765.275024 635.087280,776.808533 616.320862,787.900452 
	C605.668884,794.196228 594.088318,798.995056 582.698853,803.945435 
	C573.614807,807.893799 564.205078,811.100037 554.905884,814.543762 
	C548.017029,817.094788 541.208374,820.022461 534.123108,821.846375 
	C523.073059,824.690857 511.856140,826.938477 500.639923,829.070801 
	C490.629211,830.973877 480.516815,832.338196 470.471710,834.070190 
	C469.563904,834.226685 468.820038,835.334167 468.000000,836.000000 
	C435.645782,836.000000 403.291534,836.000000 370.772064,835.622681 
	C364.271851,834.164490 357.904633,833.243286 351.608551,831.970154 
	C337.568848,829.131042 323.474945,826.479858 309.576660,823.049133 
	C299.807129,820.637634 290.266724,817.233459 280.728180,813.968262 
	C271.069031,810.661865 261.334747,807.442932 252.007065,803.336792 
	C242.376205,799.097168 233.135544,793.947510 223.834412,788.989136 
	C214.663132,784.100159 205.469803,779.217102 196.580917,773.843811 
	C187.611603,768.421814 178.641846,762.874878 170.332825,756.519104 
	C160.564590,749.047241 151.367584,740.802490 142.180481,732.604187 
	C132.605148,724.059265 122.851196,715.628418 114.062065,706.311218 
	C104.011330,695.656555 94.285629,684.560791 85.605003,672.782349 
	C74.817955,658.145691 64.536079,643.028625 55.365479,627.341797 
	C47.513943,613.911377 41.177399,599.544800 34.843651,585.293213 
	C29.700907,573.721558 24.954231,561.897278 21.128538,549.837158 
	C16.774813,536.112427 13.509667,522.033691 10.009079,508.049316 
	C6.384572,493.569855 3.144706,479.006897 2.912318,463.960388 
	C2.902076,463.297241 1.665401,462.653046 1.000002,462.000000 
	C1.000000,433.312439 1.000000,404.624878 1.378779,375.772217 
	C2.170415,374.761169 2.841154,373.948730 2.955959,373.064117 
	C4.023455,364.838898 4.403514,356.475922 6.115714,348.392822 
	C9.906849,330.495392 14.015313,312.647736 18.675970,294.959320 
	C20.986761,286.189270 24.672394,277.764862 27.975679,269.277344 
	C31.660202,259.810272 35.331371,250.319168 39.535858,241.078522 
	C43.684071,231.961517 48.085007,222.908569 53.107792,214.252686 
	C60.212021,202.009796 67.671158,189.942657 75.590729,178.213715 
	C80.837692,170.442932 87.046082,163.304855 93.025169,156.049271 
	C99.629227,148.035278 106.070770,139.830811 113.280785,132.384888 
	C126.975533,118.242073 140.744797,104.146942 156.822235,92.543900 
	C166.958038,85.228920 176.416275,76.953423 186.717422,69.895386 
	C196.612961,63.115261 206.978806,56.931568 217.549530,51.251675 
	C228.588974,45.319912 239.971146,39.958912 251.478516,34.984646 
	C262.160309,30.367256 273.136444,26.396467 284.110260,22.499382 
	C293.740753,19.079342 303.435242,15.726826 313.310089,13.141337 
	C322.176910,10.819774 331.301483,9.426828 340.359802,7.907118 
	C351.059906,6.111968 361.817108,4.658643 372.528839,2.928710 
	C373.432800,2.782720 374.179962,1.665824 375.000000,0.999995 
M202.510223,752.017761 
	C233.004547,771.774414 265.492462,787.295837 300.231201,798.043152 
	C371.291260,820.027344 443.036407,822.379578 515.130066,804.237000 
	C595.446655,784.025146 663.402893,742.778076 717.579712,680.114197 
	C792.169739,593.839111 824.179993,493.369446 814.110352,379.741547 
	C809.358398,326.119049 793.643250,275.618988 767.564026,228.584885 
	C724.964050,151.755524 663.892517,94.358795 583.990051,57.569477 
	C507.518341,22.359827 427.490814,12.712488 344.969543,28.387394 
	C251.708466,46.102322 173.925964,91.764961 113.603241,165.002747 
	C36.132072,259.060425 6.975152,367.423462 27.706215,487.361755 
	C47.192093,600.096130 107.114250,687.737122 202.510223,752.017761 
z"/>
<path fill="#00000000" opacity="1.000000" stroke="none" 
	d="
M374.531342,0.999995 
	C374.179962,1.665824 373.432800,2.782720 372.528839,2.928710 
	C361.817108,4.658643 351.059906,6.111968 340.359802,7.907118 
	C331.301483,9.426828 322.176910,10.819774 313.310089,13.141337 
	C303.435242,15.726826 293.740753,19.079342 284.110260,22.499382 
	C273.136444,26.396467 262.160309,30.367256 251.478516,34.984646 
	C239.971146,39.958912 228.588974,45.319912 217.549530,51.251675 
	C206.978806,56.931568 196.612961,63.115261 186.717422,69.895386 
	C176.416275,76.953423 166.958038,85.228920 156.822235,92.543900 
	C140.744797,104.146942 126.975533,118.242073 113.280785,132.384888 
	C106.070770,139.830811 99.629227,148.035278 93.025169,156.049271 
	C87.046082,163.304855 80.837692,170.442932 75.590729,178.213715 
	C67.671158,189.942657 60.212021,202.009796 53.107792,214.252686 
	C48.085007,222.908569 43.684071,231.961517 39.535858,241.078522 
	C35.331371,250.319168 31.660202,259.810272 27.975679,269.277344 
	C24.672394,277.764862 20.986761,286.189270 18.675970,294.959320 
	C14.015313,312.647736 9.906849,330.495392 6.115714,348.392822 
	C4.403514,356.475922 4.023455,364.838898 2.955959,373.064117 
	C2.841154,373.948730 2.170415,374.761169 1.378779,375.303528 
	C1.000000,250.406265 1.000000,125.812515 1.000000,1.000000 
	C125.354141,1.000000 249.708420,1.000000 374.531342,0.999995 
z"/>
<path fill="#00000000" opacity="1.000000" stroke="none" 
	d="
M836.000000,369.531342 
	C835.334229,369.180237 834.226685,368.436493 834.070435,367.529022 
	C832.342346,357.490173 831.217529,347.326019 829.039368,337.390869 
	C825.359863,320.607178 821.580933,303.806793 816.793945,287.318207 
	C813.691101,276.630646 808.890991,266.413483 804.540833,256.116791 
	C800.399170,246.313507 796.273987,236.462448 791.373047,227.031738 
	C786.044128,216.777206 779.990906,206.884171 773.953430,197.017151 
	C768.488892,188.086456 762.955139,179.161118 756.830200,170.682556 
	C751.312012,163.043930 745.156311,155.832901 738.911438,148.760345 
	C730.411743,139.134140 721.766907,129.616241 712.784851,120.443062 
	C707.021790,114.557388 700.778687,109.075882 694.331238,103.939728 
	C679.647034,92.241982 665.285034,79.997108 649.700256,69.613319 
	C634.716614,59.630081 618.491272,51.460537 602.556396,42.973175 
	C592.480713,37.606621 582.267395,32.166191 571.531799,28.443192 
	C551.926147,21.644184 532.105896,15.190974 511.958496,10.315041 
	C496.277832,6.520113 479.962555,5.352327 463.937866,2.959908 
	C463.049591,2.827298 462.239380,2.172279 461.696411,1.380210 
	C586.593201,1.000000 711.186462,1.000000 836.000000,1.000000 
	C836.000000,123.687469 836.000000,246.375076 836.000000,369.531342 
z"/>
<path fill="#00000000" opacity="1.000000" stroke="none" 
	d="
M1.000002,462.468658 
	C1.665401,462.653046 2.902076,463.297241 2.912318,463.960388 
	C3.144706,479.006897 6.384572,493.569855 10.009079,508.049316 
	C13.509667,522.033691 16.774813,536.112427 21.128538,549.837158 
	C24.954231,561.897278 29.700907,573.721558 34.843651,585.293213 
	C41.177399,599.544800 47.513943,613.911377 55.365479,627.341797 
	C64.536079,643.028625 74.817955,658.145691 85.605003,672.782349 
	C94.285629,684.560791 104.011330,695.656555 114.062065,706.311218 
	C122.851196,715.628418 132.605148,724.059265 142.180481,732.604187 
	C151.367584,740.802490 160.564590,749.047241 170.332825,756.519104 
	C178.641846,762.874878 187.611603,768.421814 196.580917,773.843811 
	C205.469803,779.217102 214.663132,784.100159 223.834412,788.989136 
	C233.135544,793.947510 242.376205,799.097168 252.007065,803.336792 
	C261.334747,807.442932 271.069031,810.661865 280.728180,813.968262 
	C290.266724,817.233459 299.807129,820.637634 309.576660,823.049133 
	C323.474945,826.479858 337.568848,829.131042 351.608551,831.970154 
	C357.904633,833.243286 364.271851,834.164490 370.303406,835.622681 
	C247.072433,836.000000 124.144867,836.000000 1.000000,836.000000 
	C1.000000,711.645874 1.000000,587.291565 1.000002,462.468658 
z"/>
<path fill="#00000000" opacity="1.000000" stroke="none" 
	d="
M468.468689,836.000000 
	C468.820038,835.334167 469.563904,834.226685 470.471710,834.070190 
	C480.516815,832.338196 490.629211,830.973877 500.639923,829.070801 
	C511.856140,826.938477 523.073059,824.690857 534.123108,821.846375 
	C541.208374,820.022461 548.017029,817.094788 554.905884,814.543762 
	C564.205078,811.100037 573.614807,807.893799 582.698853,803.945435 
	C594.088318,798.995056 605.668884,794.196228 616.320862,787.900452 
	C635.087280,776.808533 653.668274,765.275024 671.445068,752.681702 
	C683.167969,744.377014 693.608093,734.172119 704.144653,724.307556 
	C714.554199,714.561951 724.522705,704.326843 734.367126,694.003662 
	C739.218567,688.916260 743.591309,683.320312 747.762634,677.647095 
	C756.208801,666.160217 765.056702,654.883362 772.471436,642.745544 
	C781.348816,628.213379 789.309143,613.074890 796.901550,597.818237 
	C803.161499,585.239075 808.990601,572.351501 813.749878,559.146240 
	C818.347839,546.388611 821.669373,533.132935 824.926086,519.941589 
	C827.741089,508.539856 829.717957,496.929199 831.986145,485.395325 
	C833.162781,479.412109 834.167908,473.395172 835.625244,467.696716 
	C836.000000,590.593750 836.000000,713.187500 836.000000,836.000000 
	C713.645874,836.000000 591.291565,836.000000 468.468689,836.000000 
z"/>
<path opacity="1.000000" stroke="none" 
	d="
M202.213837,751.810547 
	C107.114250,687.737122 47.192093,600.096130 27.706215,487.361755 
	C6.975152,367.423462 36.132072,259.060425 113.603241,165.002747 
	C173.925964,91.764961 251.708466,46.102322 344.969543,28.387394 
	C427.490814,12.712488 507.518341,22.359827 583.990051,57.569477 
	C663.892517,94.358795 724.964050,151.755524 767.564026,228.584885 
	C793.643250,275.618988 809.358398,326.119049 814.110352,379.741547 
	C824.179993,493.369446 792.169739,593.839111 717.579712,680.114197 
	C663.402893,742.778076 595.446655,784.025146 515.130066,804.237000 
	C443.036407,822.379578 371.291260,820.027344 300.231201,798.043152 
	C265.492462,787.295837 233.004547,771.774414 202.213837,751.810547 
M482.715515,360.096741 
	C483.588867,351.669525 484.500580,343.245941 485.294586,334.811279 
	C485.415009,333.532104 485.472656,331.559784 484.733734,331.002258 
	C480.882355,328.096344 482.307770,324.180725 482.240631,320.517365 
	C482.149078,315.521545 482.214142,310.510620 481.836304,305.534729 
	C480.950775,293.872314 478.177551,283.026093 469.664093,274.128937 
	C445.959686,249.356201 405.227875,245.927246 376.810547,266.434967 
	C364.807556,275.097046 357.176392,286.245728 356.172607,301.270050 
	C355.640656,309.232269 355.612518,317.227600 355.301758,325.205841 
	C355.252686,326.465790 355.036102,327.751434 354.678375,328.960541 
	C353.882782,331.649384 352.302490,334.276184 352.214874,336.966492 
	C352.064148,341.593506 352.227173,346.388702 353.297516,350.864868 
	C355.585297,360.432678 354.552551,371.373047 363.770905,378.356964 
	C364.339661,378.787872 364.482788,379.835632 364.731689,380.625488 
	C368.339050,392.074707 374.302399,402.222748 382.119507,411.240540 
	C384.075409,413.496826 383.988068,415.081635 382.518890,417.325562 
	C377.709412,424.671082 371.100067,429.891663 363.162170,433.309570 
	C339.932495,443.311951 316.655640,453.207214 293.318634,462.956238 
	C287.719757,465.295135 282.981659,468.563629 280.032043,473.769684 
	C277.013519,479.097443 273.990906,484.583801 272.116974,490.372009 
	C262.708771,519.432007 261.677368,549.543030 261.651917,579.739136 
	C261.650696,581.162415 261.975159,582.585876 262.157257,584.085938 
	C366.768890,584.085938 471.017578,584.085938 575.515137,584.085938 
	C575.700439,582.590271 576.046692,581.296509 575.990723,580.020325 
	C575.261780,563.390076 574.998962,546.716736 573.555725,530.146790 
	C572.139465,513.886780 569.242859,497.777161 562.556519,482.675323 
	C558.547302,473.620026 552.885254,466.322815 543.113342,462.353882 
	C520.297852,453.087280 497.686859,443.313934 475.048492,433.616333 
	C467.272430,430.285248 460.694366,425.322906 455.681519,418.339905 
	C453.638092,415.493408 453.703003,413.605408 455.846649,410.537018 
	C461.154663,402.939148 465.859528,394.904602 470.538055,386.888702 
	C472.878357,382.878967 472.719513,377.391052 477.870392,375.025330 
	C478.539459,374.718079 478.779449,373.313446 479.068848,372.371277 
	C480.240387,368.557465 481.353577,364.725708 482.715515,360.096741 
M608.460571,274.039215 
	C597.661987,264.480286 585.237000,259.668549 570.630493,259.853821 
	C543.014282,260.204132 524.982544,277.953888 524.908020,305.450958 
	C524.899414,308.616943 526.006470,312.371246 524.692444,314.839111 
	C520.684937,322.365997 523.111267,329.723969 524.056702,337.132141 
	C524.898560,343.728302 527.660278,349.419037 531.638733,354.956818 
	C536.528625,361.763367 539.850891,369.675751 544.311035,376.822876 
	C545.821533,379.243317 546.367310,381.130615 544.323364,382.878326 
	C539.825684,386.723999 535.544128,391.246979 530.336853,393.753571 
	C517.904114,399.738342 504.978424,404.696716 492.269409,410.110962 
	C488.147949,411.866730 484.081116,413.750763 479.013458,416.011505 
	C500.926239,425.327118 521.640381,433.987823 542.217957,442.961823 
	C549.188416,446.001709 556.473145,448.961395 562.457275,453.487366 
	C574.388977,462.511536 579.657715,476.043945 583.954468,489.856720 
	C585.614075,495.192017 586.902710,500.642731 588.305542,505.837830 
	C622.022827,505.837830 655.265747,505.837830 689.343811,505.837830 
	C688.835205,494.526123 688.639099,483.565552 687.778320,472.657440 
	C686.650635,458.367462 684.782349,444.164490 679.046631,430.804596 
	C675.982239,423.666840 671.435364,418.258789 663.876404,415.196136 
	C646.913757,408.323334 630.117554,401.033875 613.328613,393.741272 
	C606.623657,390.828827 601.137573,386.361267 598.146973,380.401886 
	C604.548340,369.690094 611.131592,359.820007 616.443115,349.307404 
	C619.142944,343.963989 619.815186,337.511047 620.904419,331.469635 
	C621.607300,327.571228 622.864502,322.781433 621.312439,319.667480 
	C617.712402,312.444580 619.764832,305.090149 618.965210,297.866394 
	C617.984375,289.006042 615.646912,280.881561 608.460571,274.039215 
M312.795563,302.774139 
	C311.946625,292.574188 310.772461,282.685822 302.770599,274.839844 
	C286.786255,259.166931 260.984070,255.008972 241.238663,265.575836 
	C231.126251,270.987549 222.847412,278.030701 219.908569,289.927429 
	C217.375443,300.181763 219.308060,310.831543 216.313095,321.162323 
	C214.934921,325.916138 216.709274,331.706512 217.544800,336.948639 
	C218.609756,343.630096 221.087311,349.624084 225.243866,355.295990 
	C230.003143,361.790344 232.992111,369.557770 237.470428,376.293243 
	C239.480652,379.316681 239.751877,381.634674 237.348495,383.610931 
	C232.522049,387.579651 227.724945,391.984650 222.154984,394.571716 
	C206.921829,401.647003 191.463364,408.319275 175.761292,414.273376 
	C165.693726,418.090912 160.273300,425.206543 156.928818,434.741455 
	C151.916275,449.031769 150.168030,463.914886 149.303055,478.886322 
	C148.788406,487.794128 149.208771,496.755981 149.208771,505.636536 
	C149.662827,505.832428 149.953827,506.067657 150.245178,506.068085 
	C182.407028,506.116028 214.569031,506.178650 246.730225,506.044067 
	C247.854904,506.039368 249.567398,504.258423 249.992905,502.970612 
	C252.391190,495.711823 254.174713,488.242249 256.733612,481.045746 
	C262.945801,463.575043 273.780670,450.839386 291.914551,444.122589 
	C310.934937,437.077454 329.361176,428.427307 348.040192,420.462433 
	C351.182526,419.122528 354.289948,417.700714 358.221283,415.958801 
	C356.313293,415.007477 355.356262,414.467804 354.351898,414.038879 
	C338.741791,407.371887 322.956024,401.080170 307.602814,393.867340 
	C302.236816,391.346436 297.788086,386.726410 293.264099,382.680756 
	C292.335999,381.850739 292.218048,378.884460 292.955414,377.618530 
	C298.492310,368.112457 305.040588,359.132324 309.882477,349.302917 
	C314.478180,339.973358 316.521545,329.291779 314.538208,319.128723 
	C313.522827,313.925507 313.425629,308.838470 312.795563,302.774139 
z"/>
<path fill="#FEFFFF" opacity="1.000000" stroke="none" 
	d="
M482.601898,360.498657 
	C481.353577,364.725708 480.240387,368.557465 479.068848,372.371277 
	C478.779449,373.313446 478.539459,374.718079 477.870392,375.025330 
	C472.719513,377.391052 472.878357,382.878967 470.538055,386.888702 
	C465.859528,394.904602 461.154663,402.939148 455.846649,410.537018 
	C453.703003,413.605408 453.638092,415.493408 455.681519,418.339905 
	C460.694366,425.322906 467.272430,430.285248 475.048492,433.616333 
	C497.686859,443.313934 520.297852,453.087280 543.113342,462.353882 
	C552.885254,466.322815 558.547302,473.620026 562.556519,482.675323 
	C569.242859,497.777161 572.139465,513.886780 573.555725,530.146790 
	C574.998962,546.716736 575.261780,563.390076 575.990723,580.020325 
	C576.046692,581.296509 575.700439,582.590271 575.515137,584.085938 
	C471.017578,584.085938 366.768890,584.085938 262.157257,584.085938 
	C261.975159,582.585876 261.650696,581.162415 261.651917,579.739136 
	C261.677368,549.543030 262.708771,519.432007 272.116974,490.372009 
	C273.990906,484.583801 277.013519,479.097443 280.032043,473.769684 
	C282.981659,468.563629 287.719757,465.295135 293.318634,462.956238 
	C316.655640,453.207214 339.932495,443.311951 363.162170,433.309570 
	C371.100067,429.891663 377.709412,424.671082 382.518890,417.325562 
	C383.988068,415.081635 384.075409,413.496826 382.119507,411.240540 
	C374.302399,402.222748 368.339050,392.074707 364.731689,380.625488 
	C364.482788,379.835632 364.339661,378.787872 363.770905,378.356964 
	C354.552551,371.373047 355.585297,360.432678 353.297516,350.864868 
	C352.227173,346.388702 352.064148,341.593506 352.214874,336.966492 
	C352.302490,334.276184 353.882782,331.649384 354.678375,328.960541 
	C355.036102,327.751434 355.252686,326.465790 355.301758,325.205841 
	C355.612518,317.227600 355.640656,309.232269 356.172607,301.270050 
	C357.176392,286.245728 364.807556,275.097046 376.810547,266.434967 
	C405.227875,245.927246 445.959686,249.356201 469.664093,274.128937 
	C478.177551,283.026093 480.950775,293.872314 481.836304,305.534729 
	C482.214142,310.510620 482.149078,315.521545 482.240631,320.517365 
	C482.307770,324.180725 480.882355,328.096344 484.733734,331.002258 
	C485.472656,331.559784 485.415009,333.532104 485.294586,334.811279 
	C484.500580,343.245941 483.588867,351.669525 482.601898,360.498657 
z"/>
<path fill="#FEFEFF" opacity="1.000000" stroke="none" 
	d="
M608.714844,274.286926 
	C615.646912,280.881561 617.984375,289.006042 618.965210,297.866394 
	C619.764832,305.090149 617.712402,312.444580 621.312439,319.667480 
	C622.864502,322.781433 621.607300,327.571228 620.904419,331.469635 
	C619.815186,337.511047 619.142944,343.963989 616.443115,349.307404 
	C611.131592,359.820007 604.548340,369.690094 598.146973,380.401886 
	C601.137573,386.361267 606.623657,390.828827 613.328613,393.741272 
	C630.117554,401.033875 646.913757,408.323334 663.876404,415.196136 
	C671.435364,418.258789 675.982239,423.666840 679.046631,430.804596 
	C684.782349,444.164490 686.650635,458.367462 687.778320,472.657440 
	C688.639099,483.565552 688.835205,494.526123 689.343811,505.837830 
	C655.265747,505.837830 622.022827,505.837830 588.305542,505.837830 
	C586.902710,500.642731 585.614075,495.192017 583.954468,489.856720 
	C579.657715,476.043945 574.388977,462.511536 562.457275,453.487366 
	C556.473145,448.961395 549.188416,446.001709 542.217957,442.961823 
	C521.640381,433.987823 500.926239,425.327118 479.013458,416.011505 
	C484.081116,413.750763 488.147949,411.866730 492.269409,410.110962 
	C504.978424,404.696716 517.904114,399.738342 530.336853,393.753571 
	C535.544128,391.246979 539.825684,386.723999 544.323364,382.878326 
	C546.367310,381.130615 545.821533,379.243317 544.311035,376.822876 
	C539.850891,369.675751 536.528625,361.763367 531.638733,354.956818 
	C527.660278,349.419037 524.898560,343.728302 524.056702,337.132141 
	C523.111267,329.723969 520.684937,322.365997 524.692444,314.839111 
	C526.006470,312.371246 524.899414,308.616943 524.908020,305.450958 
	C524.982544,277.953888 543.014282,260.204132 570.630493,259.853821 
	C585.237000,259.668549 597.661987,264.480286 608.714844,274.286926 
z"/>
<path fill="#FEFEFF" opacity="1.000000" stroke="none" 
	d="
M312.801727,303.244019 
	C313.425629,308.838470 313.522827,313.925507 314.538208,319.128723 
	C316.521545,329.291779 314.478180,339.973358 309.882477,349.302917 
	C305.040588,359.132324 298.492310,368.112457 292.955414,377.618530 
	C292.218048,378.884460 292.335999,381.850739 293.264099,382.680756 
	C297.788086,386.726410 302.236816,391.346436 307.602814,393.867340 
	C322.956024,401.080170 338.741791,407.371887 354.351898,414.038879 
	C355.356262,414.467804 356.313293,415.007477 358.221283,415.958801 
	C354.289948,417.700714 351.182526,419.122528 348.040192,420.462433 
	C329.361176,428.427307 310.934937,437.077454 291.914551,444.122589 
	C273.780670,450.839386 262.945801,463.575043 256.733612,481.045746 
	C254.174713,488.242249 252.391190,495.711823 249.992905,502.970612 
	C249.567398,504.258423 247.854904,506.039368 246.730225,506.044067 
	C214.569031,506.178650 182.407028,506.116028 150.245178,506.068085 
	C149.953827,506.067657 149.662827,505.832428 149.208771,505.636536 
	C149.208771,496.755981 148.788406,487.794128 149.303055,478.886322 
	C150.168030,463.914886 151.916275,449.031769 156.928818,434.741455 
	C160.273300,425.206543 165.693726,418.090912 175.761292,414.273376 
	C191.463364,408.319275 206.921829,401.647003 222.154984,394.571716 
	C227.724945,391.984650 232.522049,387.579651 237.348495,383.610931 
	C239.751877,381.634674 239.480652,379.316681 237.470428,376.293243 
	C232.992111,369.557770 230.003143,361.790344 225.243866,355.295990 
	C221.087311,349.624084 218.609756,343.630096 217.544800,336.948639 
	C216.709274,331.706512 214.934921,325.916138 216.313095,321.162323 
	C219.308060,310.831543 217.375443,300.181763 219.908569,289.927429 
	C222.847412,278.030701 231.126251,270.987549 241.238663,265.575836 
	C260.984070,255.008972 286.786255,259.166931 302.770599,274.839844 
	C310.772461,282.685822 311.946625,292.574188 312.801727,303.244019 
z"/>
</svg>