<svg version="1.1" id="Layer_1" xmlns="http://www.w3.org/2000/svg" xmlns:xlink="http://www.w3.org/1999/xlink" x="0px" y="0px"
	 width="100%" viewBox="0 0 512 512" enable-background="new 0 0 512 512" xml:space="preserve">
<path fill="#00000000" opacity="1.000000" stroke="none" 
	d="
M304.000000,513.000000 
	C202.691269,513.000000 101.882530,513.000000 1.036899,513.000000 
	C1.036899,342.399567 1.036899,171.799149 1.036899,1.099354 
	C171.558746,1.099354 342.117554,1.099354 512.838196,1.099354 
	C512.838196,171.666550 512.838196,342.333252 512.838196,513.000000 
	C443.465790,513.000000 373.982880,513.000000 304.000000,513.000000 
M471.070160,357.630951 
	C472.047913,355.571777 473.119568,353.551361 473.988312,351.447174 
	C479.911041,337.101532 485.315247,322.607056 487.513428,307.108093 
	C489.217102,295.095978 492.214874,283.165131 492.753906,271.113953 
	C493.569824,252.872864 493.908295,234.502090 489.365875,216.487335 
	C485.882965,202.674576 483.721680,188.446686 479.207672,174.995712 
	C473.045990,156.634689 463.982239,139.447372 452.913666,123.466530 
	C440.319031,105.282394 426.047089,88.502502 408.387115,75.048157 
	C396.476532,65.974014 384.537079,56.570305 371.422577,49.525478 
	C348.769897,37.356972 324.721893,28.253592 298.921326,24.976458 
	C286.571564,23.407816 274.184631,21.619186 261.772400,21.210617 
	C251.111938,20.859715 240.327225,21.812208 229.714554,23.130730 
	C217.530701,24.644453 205.281815,26.433704 193.405457,29.456089 
	C169.040329,35.656712 146.480240,46.246185 125.526482,60.156452 
	C104.631371,74.027794 86.425827,90.851799 70.947067,110.586365 
	C58.463509,126.502213 48.149979,143.759186 40.057838,162.284302 
	C28.731895,188.212494 23.336639,215.601974 21.420122,243.656250 
	C20.728737,253.776810 21.210228,264.064758 22.136656,274.186646 
	C23.310728,287.014191 24.533731,299.971741 27.447809,312.474152 
	C31.863657,331.419739 38.825859,349.559570 47.877880,366.928101 
	C58.603771,387.508331 72.262085,405.883148 88.235474,422.520386 
	C94.871620,429.432281 102.267303,435.811737 110.087090,441.346069 
	C123.068718,450.533569 136.151047,459.819397 150.141693,467.281189 
	C168.662689,477.159149 188.580017,483.968170 209.474167,487.140442 
	C222.403305,489.103455 235.397446,490.921997 248.430298,491.819641 
	C257.295563,492.430237 266.277893,491.074738 275.208832,491.056183 
	C292.399292,491.020508 309.080566,487.419342 325.293060,482.556641 
	C339.353058,478.339569 352.970123,472.330780 366.307709,466.097137 
	C384.436554,457.624146 400.605072,445.856812 415.507141,432.614563 
	C428.926666,420.689697 441.060028,407.354950 450.968750,392.332214 
	C458.186432,381.389374 464.315399,369.728394 471.070160,357.630951 
z"/>
<path opacity="1.000000" stroke="none" 
	d="
M470.999939,358.009277 
	C464.315399,369.728394 458.186432,381.389374 450.968750,392.332214 
	C441.060028,407.354950 428.926666,420.689697 415.507141,432.614563 
	C400.605072,445.856812 384.436554,457.624146 366.307709,466.097137 
	C352.970123,472.330780 339.353058,478.339569 325.293060,482.556641 
	C309.080566,487.419342 292.399292,491.020508 275.208832,491.056183 
	C266.277893,491.074738 257.295563,492.430237 248.430298,491.819641 
	C235.397446,490.921997 222.403305,489.103455 209.474167,487.140442 
	C188.580017,483.968170 168.662689,477.159149 150.141693,467.281189 
	C136.151047,459.819397 123.068718,450.533569 110.087090,441.346069 
	C102.267303,435.811737 94.871620,429.432281 88.235474,422.520386 
	C72.262085,405.883148 58.603771,387.508331 47.877880,366.928101 
	C38.825859,349.559570 31.863657,331.419739 27.447809,312.474152 
	C24.533731,299.971741 23.310728,287.014191 22.136656,274.186646 
	C21.210228,264.064758 20.728737,253.776810 21.420122,243.656250 
	C23.336639,215.601974 28.731895,188.212494 40.057838,162.284302 
	C48.149979,143.759186 58.463509,126.502213 70.947067,110.586365 
	C86.425827,90.851799 104.631371,74.027794 125.526482,60.156452 
	C146.480240,46.246185 169.040329,35.656712 193.405457,29.456089 
	C205.281815,26.433704 217.530701,24.644453 229.714554,23.130730 
	C240.327225,21.812208 251.111938,20.859715 261.772400,21.210617 
	C274.184631,21.619186 286.571564,23.407816 298.921326,24.976458 
	C324.721893,28.253592 348.769897,37.356972 371.422577,49.525478 
	C384.537079,56.570305 396.476532,65.974014 408.387115,75.048157 
	C426.047089,88.502502 440.319031,105.282394 452.913666,123.466530 
	C463.982239,139.447372 473.045990,156.634689 479.207672,174.995712 
	C483.721680,188.446686 485.882965,202.674576 489.365875,216.487335 
	C493.908295,234.502090 493.569824,252.872864 492.753906,271.113953 
	C492.214874,283.165131 489.217102,295.095978 487.513428,307.108093 
	C485.315247,322.607056 479.911041,337.101532 473.988312,351.447174 
	C473.119568,353.551361 472.047913,355.571777 470.999939,358.009277 
M143.363480,335.112122 
	C142.139160,331.098328 139.867737,327.089355 139.849167,323.070007 
	C139.609055,271.087524 139.696701,219.103592 139.665390,167.120041 
	C139.663986,164.805573 139.626404,162.413147 139.065735,160.193420 
	C137.947342,155.765656 133.809250,152.921570 129.363708,153.106476 
	C124.731682,153.299133 120.757469,156.747314 120.062256,161.387985 
	C119.792946,163.185638 119.887985,165.044128 119.887718,166.874908 
	C119.880196,218.691864 119.873993,270.508820 119.885277,322.325775 
	C119.890335,345.590088 133.232895,359.027588 156.371033,359.032196 
	C231.847183,359.047180 307.323334,359.037903 382.799469,359.035828 
	C384.298798,359.035797 385.805481,359.100739 387.296143,358.979980 
	C392.740601,358.538788 396.735657,354.392456 396.781006,349.217438 
	C396.824158,344.293610 393.098206,340.062042 387.909973,339.376678 
	C385.941498,339.116608 383.919098,339.231232 381.921295,339.231079 
	C306.778381,339.224915 231.635300,339.282623 156.492981,339.072388 
	C152.294754,339.060638 148.102707,336.843842 143.363480,335.112122 
M180.912872,298.928986 
	C185.382355,299.631165 188.464920,297.330505 191.416443,294.365967 
	C208.347458,277.360168 225.343674,260.419312 242.324326,243.462982 
	C243.591202,242.197952 244.909622,240.984573 246.884933,239.096344 
	C258.885590,251.157883 270.597229,262.928955 283.194336,275.589996 
	C304.424286,254.196671 325.601562,232.856445 347.805054,210.482101 
	C352.038177,215.357407 356.247345,220.205139 361.229919,225.943573 
	C365.508850,206.538818 369.485260,188.506027 373.611206,169.794983 
	C354.534637,174.032593 336.616150,178.012970 317.022797,182.365387 
	C322.923584,187.690674 327.705322,192.006073 331.773621,195.677612 
	C314.575073,212.884338 297.935394,229.531937 280.888611,246.586823 
	C269.794189,235.330765 258.232208,223.600357 246.693253,211.893326 
	C245.962112,212.312042 245.457825,212.476379 245.122833,212.810486 
	C221.996964,235.876266 198.904877,258.975983 175.755936,282.018555 
	C170.445740,287.304413 172.532944,296.987000 180.912872,298.928986 
M261.812164,490.000275 
	C266.201263,490.000275 270.590332,490.000275 274.979431,490.000275 
	C274.975464,489.759674 274.971527,489.519043 274.967590,489.278442 
	C262.992676,489.278442 251.017746,489.278442 239.042831,489.278442 
	C239.040405,489.519379 239.037994,489.760315 239.035568,490.001251 
	C246.320038,490.001251 253.604507,490.001251 261.812164,490.000275 
M249.585907,22.999922 
	C246.761917,22.999922 243.937943,22.999922 241.113953,22.999922 
	C241.122009,23.228706 241.130051,23.457491 241.138092,23.686275 
	C251.725067,23.686275 262.312042,23.686275 272.899017,23.686275 
	C272.899353,23.457478 272.899689,23.228682 272.900024,22.999884 
	C265.453644,22.999884 258.007294,22.999884 249.585907,22.999922 
z"/>
<path fill="#FBFDFE" opacity="1.000000" stroke="none" 
	d="
M143.635620,335.382751 
	C148.102707,336.843842 152.294754,339.060638 156.492981,339.072388 
	C231.635300,339.282623 306.778381,339.224915 381.921295,339.231079 
	C383.919098,339.231232 385.941498,339.116608 387.909973,339.376678 
	C393.098206,340.062042 396.824158,344.293610 396.781006,349.217438 
	C396.735657,354.392456 392.740601,358.538788 387.296143,358.979980 
	C385.805481,359.100739 384.298798,359.035797 382.799469,359.035828 
	C307.323334,359.037903 231.847183,359.047180 156.371033,359.032196 
	C133.232895,359.027588 119.890335,345.590088 119.885277,322.325775 
	C119.873993,270.508820 119.880196,218.691864 119.887718,166.874908 
	C119.887985,165.044128 119.792946,163.185638 120.062256,161.387985 
	C120.757469,156.747314 124.731682,153.299133 129.363708,153.106476 
	C133.809250,152.921570 137.947342,155.765656 139.065735,160.193420 
	C139.626404,162.413147 139.663986,164.805573 139.665390,167.120041 
	C139.696701,219.103592 139.609055,271.087524 139.849167,323.070007 
	C139.867737,327.089355 142.139160,331.098328 143.635620,335.382751 
z"/>
<path fill="#FCFEFE" opacity="1.000000" stroke="none" 
	d="
M180.520508,298.854065 
	C172.532944,296.987000 170.445740,287.304413 175.755936,282.018555 
	C198.904877,258.975983 221.996964,235.876266 245.122833,212.810486 
	C245.457825,212.476379 245.962112,212.312042 246.693253,211.893326 
	C258.232208,223.600357 269.794189,235.330765 280.888611,246.586823 
	C297.935394,229.531937 314.575073,212.884338 331.773621,195.677612 
	C327.705322,192.006073 322.923584,187.690674 317.022797,182.365387 
	C336.616150,178.012970 354.534637,174.032593 373.611206,169.794983 
	C369.485260,188.506027 365.508850,206.538818 361.229919,225.943573 
	C356.247345,220.205139 352.038177,215.357407 347.805054,210.482101 
	C325.601562,232.856445 304.424286,254.196671 283.194336,275.589996 
	C270.597229,262.928955 258.885590,251.157883 246.884933,239.096344 
	C244.909622,240.984573 243.591202,242.197952 242.324326,243.462982 
	C225.343674,260.419312 208.347458,277.360168 191.416443,294.365967 
	C188.464920,297.330505 185.382355,299.631165 180.520508,298.854065 
z"/>
<path fill="#000000" opacity="1.000000" stroke="none" 
	d="
M261.350586,490.000763 
	C253.604507,490.001251 246.320038,490.001251 239.035568,490.001251 
	C239.037994,489.760315 239.040405,489.519379 239.042831,489.278442 
	C251.017746,489.278442 262.992676,489.278442 274.967590,489.278442 
	C274.971527,489.519043 274.975464,489.759674 274.979431,490.000275 
	C270.590332,490.000275 266.201263,490.000275 261.350586,490.000763 
z"/>
<path fill="#000000" opacity="1.000000" stroke="none" 
	d="
M250.073410,22.999903 
	C258.007294,22.999884 265.453644,22.999884 272.900024,22.999884 
	C272.899689,23.228682 272.899353,23.457478 272.899017,23.686275 
	C262.312042,23.686275 251.725067,23.686275 241.138092,23.686275 
	C241.130051,23.457491 241.122009,23.228706 241.113953,22.999922 
	C243.937943,22.999922 246.761917,22.999922 250.073410,22.999903 
z"/>
</svg>