<?xml version="1.0" encoding="utf-8"?>
<!-- Generator: Adobe Illustrator 24.2.2, SVG Export Plug-In . SVG Version: 6.00 Build 0)  -->
<svg version="1.1" id="Layer_1" xmlns="http://www.w3.org/2000/svg" xmlns:xlink="http://www.w3.org/1999/xlink" x="0px" y="0px"
	 viewBox="0 0 512 512" style="enable-background:new 0 0 512 512;" xml:space="preserve">
<style type="text/css">
	.st0{fill:#E8E8E8;}
	.st1{fill:#EAD08F;}
	.st2{fill:#C66A6A;}
	.st3{fill:#EF9E62;}
	.st4{fill:#84C97D;}
	.st5{fill:#FFFFFF;}
</style>
<g>
	<path class="st0" d="M72.1,241.3h19.6C91.2,246.1,91,251,91,256c0,41.8,15.6,80,41.2,109.1C162.4,399.4,206.7,421,256,421
		s93.6-21.6,123.8-55.9C405.5,336,421,297.8,421,256c0-5-0.2-9.9-0.6-14.7h19.6c0.4,4.9,0.6,9.8,0.6,14.7
		c0,47.2-17.7,90.3-46.9,122.9c-33.8,37.8-82.9,61.6-137.6,61.6s-103.8-23.8-137.6-61.6C89.2,346.3,71.5,303.2,71.5,256
		C71.5,251,71.7,246.1,72.1,241.3z"/>
	<path class="st1" d="M132.2,365.1C162.4,399.4,206.7,421,256,421s93.6-21.6,123.8-55.9L256,241.3L132.2,365.1z"/>
	<path class="st2" d="M91,256c0,41.8,15.6,80,41.2,109.1L256,241.3H91.6C91.2,246.1,91,251,91,256z"/>
	<path class="st3" d="M256,91v150.3l123.8,123.8C405.5,336,421,297.8,421,256c0-5-0.2-9.9-0.6-14.7c-3.8-43.4-24.4-81.9-55.3-109.1
		C336,106.5,297.8,91,256,91z"/>
	<path class="st4" d="M72.1,241.3H256V71.5c-47.2,0-90.3,17.7-122.9,46.9C98.7,149.1,75.9,192.5,72.1,241.3z"/>
	<path class="st5" d="M204.5,174.5c-1.1-2.2-2.8-4-5-5.7c-2.2-1.6-5-3-8.5-4c-3-1-5.1-1.7-6.9-2.5c-1.7-0.7-3-1.4-3.9-2.5
		c-1-1-1.4-2.3-1.4-3.9c0-1.7,0.7-3.2,2-4.3c1.3-1.1,3-1.7,5-1.7s3.6,0.4,4.7,1.3s2.1,2.1,3,3.6c1,1.7,2,3.1,2.7,3.9
		c0.9,0.9,1.7,1.3,3,1.3c1.6,0,2.8-0.7,3.7-1.7c0.9-1.1,1.2-2.6,1.2-4.3c0-1.6-0.3-3.2-1.2-4.9c-0.9-1.7-2-3.2-3.6-4.6
		c-1.6-1.3-3.5-2.5-5.8-3.3c-0.4-0.1-1-0.3-1.6-0.4v-2.5c0-3.2-2.6-5.8-5.8-5.8h-0.7c-3.2,0-5.8,2.6-5.8,5.8v2.7
		c-1.1,0.3-2.2,0.9-3.2,1.4c-2.6,1.6-4.6,3.8-5.9,6.4c-1.3,2.7-2,5.6-2,8.6c0,3.5,0.8,6.2,2.2,8.6c1.4,2.3,3.3,4.2,5.8,5.7
		c2.5,1.4,5.6,2.8,9.4,4c3.5,1.1,5.9,2.2,7.4,3.5c1.4,1.2,2.2,3.2,2.2,5.8c0,1.7-0.8,3.3-2.1,4.7c-1.4,1.3-3.3,2-5.6,2
		c-2.7,0-4.9-0.7-6.6-2c-1.6-1.3-3-3.3-4-6c-0.7-1.3-1.2-2.5-1.9-3.3c-0.7-0.8-1.4-1.1-2.7-1.1c-1.3,0-2.5,0.7-3.3,1.7
		c-0.9,1.2-1.3,2.6-1.3,4.3c0,2.5,0.8,5,2.1,7.5s3.5,4.6,6.2,6.2c1,0.7,2.1,1.1,3.2,1.4v2c0,3.2,2.6,5.8,5.8,5.8h0.9
		c3.2,0,5.8-2.6,5.8-5.8V201c2-0.3,3.7-1,5.3-1.9c3-1.4,5.1-3.8,6.7-6.8c1.4-3,2.2-6.6,2.2-10.7
		C206.2,179.1,205.6,176.6,204.5,174.5z"/>
	<g>
		<path class="st5" d="M336.1,211c0,5.8-1.3,10.1-3.8,12.9c-2.6,2.8-6,4.2-10.5,4.2c-2.7,0-5.2-0.6-7.4-1.8
			c-2.2-1.2-3.9-3.1-5.1-5.6s-1.8-5.7-1.8-9.3c0-3.9,0.5-7.2,1.4-9.9s2.5-4.6,4.6-6c2.1-1.4,4.8-2,8.1-2c2.4,0,4.4,0.4,6.2,1.1
			c1.8,0.7,3.3,1.8,4.6,3.3s2.2,3.3,2.8,5.5C335.7,205.6,336.1,208.1,336.1,211z M327.5,210.6c0-4-0.4-6.9-1.3-8.7
			c-0.9-1.8-2.4-2.7-4.5-2.7c-1.5,0-2.6,0.4-3.5,1.3c-0.9,0.9-1.5,2.1-1.8,3.8s-0.5,3.8-0.5,6.4c0,2.7,0.2,4.9,0.5,6.6
			c0.3,1.7,0.9,3,1.8,3.8s2,1.3,3.5,1.3c2.2,0,3.8-1,4.6-2.9C327.1,217.7,327.5,214.7,327.5,210.6z M359.8,199.5l-37.9,61.2
			c-1,1.7-2.1,2.5-3.3,2.5c-0.7,0-1.4-0.3-2.1-0.8c-0.7-0.5-1-1.2-1-2.1c0-0.6,0.3-1.4,0.9-2.3l38.2-61.7c0.7-1.1,1.3-2,1.8-2.5
			c0.5-0.6,1.2-0.8,2.2-0.8c0.9,0,1.6,0.3,2.2,0.8s0.8,1.2,0.8,2.1C361.5,196.5,361,197.7,359.8,199.5z M369.5,243.9
			c0,5.8-1.3,10.1-3.8,12.9c-2.6,2.8-6,4.2-10.5,4.2c-2.8,0-5.2-0.6-7.4-1.8s-3.9-3.1-5.1-5.6c-1.2-2.5-1.8-5.6-1.8-9.3
			c0-5.9,1.1-10.4,3.4-13.4c2.3-3,5.9-4.5,10.8-4.5c2.4,0,4.4,0.4,6.2,1.1c1.8,0.7,3.3,1.8,4.6,3.3c1.3,1.5,2.2,3.3,2.8,5.4
			C369.2,238.5,369.5,241,369.5,243.9z M361,243.5c0-3.9-0.4-6.8-1.3-8.6c-0.9-1.8-2.4-2.7-4.5-2.7c-1.5,0-2.7,0.4-3.6,1.3
			c-0.9,0.9-1.4,2.1-1.8,3.8c-0.3,1.7-0.5,3.8-0.5,6.4c0,4.1,0.4,7,1.3,8.9c0.9,1.9,2.4,2.8,4.6,2.8c2.2,0,3.7-1,4.6-2.9
			S361,247.6,361,243.5z"/>
	</g>
	<path class="st5" d="M295.9,321.1c-0.1-1.9-1.8-3.2-3.6-3l-20,3c-2.7,0.4-3.7,3.9-1.5,5.6l6.8,5.6l-17.3,20.5l-12-17.1
		c-0.8-1.2-2.2-1.9-3.6-2c-1.4-0.1-2.9,0.5-3.8,1.6l-24.8,29.1c-1.7,2-1.4,4.9,0.5,6.6c0.9,0.8,2,1.1,3,1.1c1.3,0,2.7-0.6,3.6-1.7
		l20.8-24.5l12,17.1c0.8,1.2,2.2,1.9,3.6,2c1.4,0.1,2.9-0.6,3.8-1.7l21.3-25.3l7,5.7c2.1,1.7,5.3,0.1,5.2-2.6L295.9,321.1z"/>
</g>
</svg>
