<?xml version="1.0" encoding="UTF-8" standalone="no"?> <svg width="64" height="64" viewBox="0 0 64 64" fill="none" xmlns="http://www.w3.org/2000/svg">
<path d="M33 52.85V49.11C33 48.8448 32.8946 48.5904 32.7071 48.4029C32.5196 48.2153 32.2652 48.11 32 48.11C31.7348 48.11 31.4804 48.2153 31.2929 48.4029C31.1054 48.5904 31 48.8448 31 49.11V52.85C30.0192 53.0941 29.1615 53.6887 28.5888 54.5215C28.0161 55.3543 27.7678 56.3679 27.8908 57.3711C28.0137 58.3744 28.4995 59.298 29.2564 59.9678C30.0134 60.6376 30.9892 61.0074 32 61.0074C33.0108 61.0074 33.9866 60.6376 34.7435 59.9678C35.5005 59.298 35.9862 58.3744 36.1092 57.3711C36.2322 56.3679 35.9839 55.3543 35.4112 54.5215C34.8385 53.6887 33.9808 53.0941 33 52.85Z" fill="#575B6D"/>
<path d="M56 11H8C7.44772 11 7 11.4477 7 12V49.11C7 49.6623 7.44772 50.11 8 50.11H56C56.5523 50.11 57 49.6623 57 49.11V12C57 11.4477 56.5523 11 56 11Z" fill="#DBD8DD"/>
<path d="M56 3H8C6.67392 3 5.40215 3.52678 4.46447 4.46447C3.52678 5.40215 3 6.67392 3 8C3 9.32608 3.52678 10.5979 4.46447 11.5355C5.40215 12.4732 6.67392 13 8 13H56C57.3261 13 58.5979 12.4732 59.5355 11.5355C60.4732 10.5979 61 9.32608 61 8C61 6.67392 60.4732 5.40215 59.5355 4.46447C58.5979 3.52678 57.3261 3 56 3V3Z" fill="#575B6D"/>
<path d="M47.4299 44.86H17.5699V15C17.5699 14.7348 17.4646 14.4804 17.2771 14.2929C17.0895 14.1054 16.8352 14 16.5699 14C16.3047 14 16.0504 14.1054 15.8628 14.2929C15.6753 14.4804 15.5699 14.7348 15.5699 15V45.86C15.5699 46.1252 15.6753 46.3796 15.8628 46.5671C16.0504 46.7546 16.3047 46.86 16.5699 46.86H47.4299C47.6952 46.86 47.9495 46.7546 48.1371 46.5671C48.3246 46.3796 48.4299 46.1252 48.4299 45.86C48.4299 45.5948 48.3246 45.3404 48.1371 45.1529C47.9495 44.9654 47.6952 44.86 47.4299 44.86Z" fill="#575B6D"/>
<path d="M23.91 21.05H20.59C20.0377 21.05 19.59 21.4977 19.59 22.05V42.99C19.59 43.5423 20.0377 43.99 20.59 43.99H23.91C24.4623 43.99 24.91 43.5423 24.91 42.99V22.05C24.91 21.4977 24.4623 21.05 23.91 21.05Z" fill="#EF5261"/>
<path d="M30.6301 28.8H27.3101C26.7578 28.8 26.3101 29.2477 26.3101 29.8V42.98C26.3101 43.5323 26.7578 43.98 27.3101 43.98H30.6301C31.1823 43.98 31.6301 43.5323 31.6301 42.98V29.8C31.6301 29.2477 31.1823 28.8 30.6301 28.8Z" fill="#F6C863"/>
<path d="M37.36 23.69H34.04C33.4878 23.69 33.04 24.1377 33.04 24.69V42.99C33.04 43.5423 33.4878 43.99 34.04 43.99H37.36C37.9123 43.99 38.36 43.5423 38.36 42.99V24.69C38.36 24.1377 37.9123 23.69 37.36 23.69Z" fill="#64B5F6"/>
<path d="M44.08 18.41H40.76C40.2077 18.41 39.76 18.8577 39.76 19.41V42.98C39.76 43.5323 40.2077 43.98 40.76 43.98H44.08C44.6323 43.98 45.08 43.5323 45.08 42.98V19.41C45.08 18.8577 44.6323 18.41 44.08 18.41Z" fill="#F7931E"/>
</svg>
