<svg version="1.1" id="Layer_1" xmlns="http://www.w3.org/2000/svg" xmlns:xlink="http://www.w3.org/1999/xlink" x="0px" y="0px"
	 width="100%" viewBox="0 0 512 512" enable-background="new 0 0 512 512" xml:space="preserve">
<path opacity="1.000000" stroke="none" 
	d="
M0.999997,287.000000 
	C1.000000,270.312439 1.000000,253.624878 1.226270,236.163040 
	C1.987821,231.809357 2.523102,228.229965 3.025534,224.538086 
	C2.992684,224.425613 3.121542,224.229889 3.350489,223.896667 
	C4.350528,219.030746 5.121620,214.498047 5.977142,209.580826 
	C11.279532,184.479721 19.410400,160.772049 31.761490,138.712128 
	C38.083473,127.420624 45.461952,116.720642 52.622505,105.522034 
	C66.842560,87.772049 82.146446,71.554840 100.034218,57.990147 
	C157.233902,14.614376 221.525497,-2.587617 292.667450,6.968588 
	C346.674103,14.223080 393.358643,37.208309 433.044769,74.470764 
	C450.774780,91.117981 465.463593,110.205414 478.149017,131.301971 
	C484.113403,143.589371 489.960114,155.547165 495.832397,167.855438 
	C498.929871,178.446167 502.001831,188.686432 505.127411,199.317688 
	C506.803375,208.785126 508.425720,217.861557 510.113159,227.348892 
	C510.447418,229.864944 510.729736,231.968536 510.983307,234.075577 
	C511.662140,239.716248 512.328613,245.358429 513.000000,251.000000 
	C513.000000,263.354218 513.000000,275.708466 512.624023,288.261841 
	C511.414032,292.968842 510.579987,297.476654 509.569641,302.118683 
	C509.174652,302.471405 509.051971,302.734680 508.986145,303.435944 
	C508.883911,304.879150 508.820892,305.929108 508.582611,307.115723 
	C508.187744,307.469147 508.057404,307.730438 507.972473,308.429596 
	C507.886688,309.876404 507.844788,310.929871 507.636353,312.134583 
	C507.246277,312.500244 507.101318,312.758728 506.986755,313.462311 
	C506.223877,316.894226 505.509186,319.925110 504.551514,323.027954 
	C504.210907,323.734589 504.113342,324.369293 503.969574,325.328186 
	C503.875763,326.085785 503.828125,326.519196 503.462280,327.080200 
	C502.373108,328.827698 501.538452,330.420715 500.841248,332.071747 
	C495.216431,345.391327 490.339966,359.083923 483.875000,371.980896 
	C464.599670,410.433472 436.510376,441.481842 401.007416,465.478119 
	C353.008301,497.920441 299.988037,512.717651 241.859222,509.172241 
	C213.302979,507.430481 185.979065,501.199097 159.582626,490.408203 
	C116.153625,472.654358 80.628212,444.633148 52.336926,407.402374 
	C34.856518,384.398499 21.962294,358.937164 13.195959,331.386047 
	C12.581381,329.454529 11.226219,327.758698 10.162514,325.630096 
	C10.067475,324.872803 10.025357,324.438629 10.160346,323.832153 
	C9.960120,323.091919 9.582788,322.524078 9.148117,321.573669 
	C8.720485,319.462524 8.350190,317.733948 8.155907,315.833893 
	C7.960021,315.092773 7.588126,314.523071 7.162609,313.559265 
	C6.736079,311.113556 6.363169,309.061920 5.930124,306.799713 
	C5.725749,306.323883 5.519495,306.122040 5.183095,305.558319 
	C4.392528,299.390045 3.704983,293.641876 2.870280,287.915192 
	C2.813770,287.527496 1.649213,287.301300 0.999997,287.000000 
M129.089539,241.945435 
	C129.341599,272.307312 129.593643,302.669220 129.455185,333.710297 
	C129.327820,335.191620 129.012436,336.684265 129.100998,338.152557 
	C130.720383,365.000702 151.290390,384.848541 178.062302,384.914703 
	C234.667938,385.054596 291.274567,385.077759 347.879913,384.888184 
	C366.200165,384.826813 380.690521,376.874512 390.174194,361.053406 
	C395.847382,351.589142 398.387054,341.172363 396.072662,329.076569 
	C396.135773,284.773621 396.604797,240.466019 396.099243,196.169571 
	C395.826080,172.231186 374.950317,152.231689 350.991119,152.171814 
	C269.708771,151.968658 188.425629,152.070282 107.142792,152.103729 
	C98.318214,152.107346 94.824097,155.557892 94.152893,165.303375 
	C94.113068,168.126663 94.328239,170.981232 93.986420,173.767471 
	C92.886345,182.734146 95.951027,190.342514 100.960609,197.528076 
	C104.184349,202.152069 106.933029,207.104401 109.989143,211.848694 
	C116.267570,221.595352 122.609497,231.301102 129.089539,241.945435 
z"/>
<path fill="#00000000" opacity="1.000000" stroke="none" 
	d="
M5.990259,307.010315 
	C6.363169,309.061920 6.736079,311.113556 7.083793,313.864563 
	C7.365694,315.044434 7.672792,315.524872 7.979893,316.005341 
	C8.350190,317.733948 8.720485,319.462524 9.065270,321.878937 
	C9.354254,323.045990 9.668746,323.525238 9.983239,324.004486 
	C10.025357,324.438629 10.067475,324.872803 10.094229,326.010834 
	C15.914822,345.870270 23.255980,364.386871 32.962048,381.955139 
	C42.378189,398.998627 53.549408,414.836731 66.789024,429.016022 
	C76.154305,439.046021 86.340927,448.418701 96.889137,457.211182 
	C117.324883,474.245422 140.304626,487.125702 165.178482,496.601440 
	C183.913681,503.738647 203.143188,508.864899 223.110397,511.094696 
	C223.802551,511.171967 224.372894,512.340210 225.000000,513.000000 
	C150.405975,513.000000 75.811951,513.000000 1.000000,513.000000 
	C1.000000,437.979248 1.000000,362.958282 0.999997,287.468658 
	C1.649213,287.301300 2.813770,287.527496 2.870280,287.915192 
	C3.704983,293.641876 4.392528,299.390045 5.153334,305.806030 
	C5.355636,306.809723 5.621820,306.986847 5.990259,307.010315 
z"/>
<path fill="#00000000" opacity="1.000000" stroke="none" 
	d="
M290.000000,1.000000 
	C364.260529,1.000000 438.521088,1.000000 513.000000,1.000000 
	C513.000000,75.354088 513.000000,149.708389 512.769958,224.898346 
	C512.034363,225.460281 511.528839,225.186554 511.020386,224.472656 
	C509.372559,214.981155 507.727661,205.929840 506.054565,196.475189 
	C502.702972,185.673965 499.379517,175.276108 496.027893,164.500336 
	C490.341217,152.379700 484.682770,140.636978 478.985138,128.539948 
	C478.396027,127.390244 477.787903,126.628555 477.304565,125.794563 
	C461.524933,98.567329 440.930878,75.517784 416.373016,55.979523 
	C394.775024,38.796158 371.047607,25.342730 345.027466,15.997492 
	C327.675476,9.765453 309.993195,4.948054 291.609985,2.927776 
	C291.009949,2.861834 290.533875,1.668041 290.000000,1.000000 
z"/>
<path fill="#00000000" opacity="1.000000" stroke="none" 
	d="
M3.121542,224.229889 
	C3.121542,224.229889 2.992684,224.425613 2.642051,224.770233 
	C1.860946,225.076553 1.430473,225.038269 1.000000,225.000000 
	C1.000000,150.406296 1.000000,75.812576 1.000000,1.000000 
	C75.354088,1.000000 149.708389,1.000000 224.887451,1.322938 
	C224.717056,2.098955 223.760178,2.805288 222.720276,2.962578 
	C217.370636,3.771718 211.926987,4.096421 206.648102,5.213708 
	C175.458374,11.815090 146.185425,23.259747 119.198250,40.355530 
	C102.990311,50.622910 88.118546,62.621384 74.750198,76.317451 
	C66.488762,84.781418 59.199509,94.194313 51.218079,103.425339 
	C34.063805,126.827034 20.854401,151.914169 12.415272,179.329575 
	C9.331200,189.348511 7.535320,199.763962 4.998970,210.374176 
	C4.271297,215.243179 3.696420,219.736526 3.121542,224.229889 
z"/>
<path fill="#00000000" opacity="1.000000" stroke="none" 
	d="
M503.780487,326.952576 
	C503.828125,326.519196 503.875763,326.085785 504.259399,325.201355 
	C504.661774,324.152161 504.728149,323.554077 504.794525,322.955963 
	C505.509186,319.925110 506.223877,316.894226 507.241211,313.387604 
	C507.630219,312.602325 507.716522,312.292816 507.802856,311.983337 
	C507.844788,310.929871 507.886688,309.876404 508.212952,308.347839 
	C508.584198,307.574829 508.671021,307.276947 508.757843,306.979095 
	C508.820892,305.929108 508.883911,304.879150 509.219360,303.347107 
	C509.829926,302.644684 509.914642,302.351166 509.745911,301.984497 
	C510.579987,297.476654 511.414032,292.968842 512.624023,288.730499 
	C513.000000,363.593719 513.000000,438.187408 513.000000,513.000000 
	C438.645905,513.000000 364.291626,513.000000 289.329651,512.591431 
	C291.831512,511.460785 294.906464,510.481689 298.056183,510.057587 
	C321.813599,506.858490 344.344055,499.530975 365.967194,489.455017 
	C386.621277,479.830597 405.682190,467.674927 422.986877,452.698029 
	C435.521362,441.849670 447.519989,430.508575 457.283508,417.131805 
	C465.875824,405.359619 474.048645,393.225647 481.598267,380.761719 
	C491.733948,364.028351 498.671814,345.832458 503.780487,326.952576 
z"/>
<path fill="#185DC0" opacity="1.000000" stroke="none" 
	d="
M503.462280,327.080200 
	C498.671814,345.832458 491.733948,364.028351 481.598267,380.761719 
	C474.048645,393.225647 465.875824,405.359619 457.283508,417.131805 
	C447.519989,430.508575 435.521362,441.849670 422.986877,452.698029 
	C405.682190,467.674927 386.621277,479.830597 365.967194,489.455017 
	C344.344055,499.530975 321.813599,506.858490 298.056183,510.057587 
	C294.906464,510.481689 291.831512,511.460785 288.860962,512.591431 
	C267.979095,513.000000 246.958206,513.000000 225.468658,513.000000 
	C224.372894,512.340210 223.802551,511.171967 223.110397,511.094696 
	C203.143188,508.864899 183.913681,503.738647 165.178482,496.601440 
	C140.304626,487.125702 117.324883,474.245422 96.889137,457.211182 
	C86.340927,448.418701 76.154305,439.046021 66.789024,429.016022 
	C53.549408,414.836731 42.378189,398.998627 32.962048,381.955139 
	C23.255980,364.386871 15.914822,345.870270 10.147150,326.333984 
	C11.226219,327.758698 12.581381,329.454529 13.195959,331.386047 
	C21.962294,358.937164 34.856518,384.398499 52.336926,407.402374 
	C80.628212,444.633148 116.153625,472.654358 159.582626,490.408203 
	C185.979065,501.199097 213.302979,507.430481 241.859222,509.172241 
	C299.988037,512.717651 353.008301,497.920441 401.007416,465.478119 
	C436.510376,441.481842 464.599670,410.433472 483.875000,371.980896 
	C490.339966,359.083923 495.216431,345.391327 500.841248,332.071747 
	C501.538452,330.420715 502.373108,328.827698 503.462280,327.080200 
z"/>
<path fill="#7BABF5" opacity="1.000000" stroke="none" 
	d="
M51.473812,103.181198 
	C59.199509,94.194313 66.488762,84.781418 74.750198,76.317451 
	C88.118546,62.621384 102.990311,50.622910 119.198250,40.355530 
	C146.185425,23.259747 175.458374,11.815090 206.648102,5.213708 
	C211.926987,4.096421 217.370636,3.771718 222.720276,2.962578 
	C223.760178,2.805288 224.717056,2.098955 225.356110,1.322938 
	C246.354233,1.000000 267.708466,1.000000 289.531342,1.000000 
	C290.533875,1.668041 291.009949,2.861834 291.609985,2.927776 
	C309.993195,4.948054 327.675476,9.765453 345.027466,15.997492 
	C371.047607,25.342730 394.775024,38.796158 416.373016,55.979523 
	C440.930878,75.517784 461.524933,98.567329 477.304565,125.794563 
	C477.787903,126.628555 478.396027,127.390244 478.934570,128.832489 
	C478.625916,129.976990 478.328613,130.474670 478.031342,130.972351 
	C465.463593,110.205414 450.774780,91.117981 433.044769,74.470764 
	C393.358643,37.208309 346.674103,14.223080 292.667450,6.968588 
	C221.525497,-2.587617 157.233902,14.614376 100.034218,57.990147 
	C82.146446,71.554840 66.842560,87.772049 52.404602,104.875107 
	C51.776024,104.033379 51.624920,103.607292 51.473812,103.181198 
z"/>
<path fill="#3883E9" opacity="1.000000" stroke="none" 
	d="
M511.023315,224.912827 
	C511.528839,225.186554 512.034363,225.460281 512.769958,225.367004 
	C513.000000,233.354233 513.000000,241.708466 513.000000,250.531342 
	C512.328613,245.358429 511.662140,239.716248 510.983307,234.075577 
	C510.729736,231.968536 510.447418,229.864944 510.310608,227.142273 
	C510.636444,225.987457 510.829895,225.450150 511.023315,224.912827 
z"/>
<path fill="#619BEE" opacity="1.000000" stroke="none" 
	d="
M1.000000,225.458069 
	C1.430473,225.038269 1.860946,225.076553 2.674901,224.882690 
	C2.523102,228.229965 1.987821,231.809357 1.226270,235.694382 
	C1.000000,232.638718 1.000000,229.277420 1.000000,225.458069 
z"/>
<path fill="#FEFEFF" opacity="1.000000" stroke="none" 
	d="
M129.845703,333.031097 
	C129.593643,302.669220 129.341599,272.307312 129.086716,241.019318 
	C129.800705,230.666153 128.377609,222.121338 123.022095,213.689667 
	C112.809959,197.611755 103.782639,180.781296 94.263443,164.263260 
	C94.824097,155.557892 98.318214,152.107346 107.142792,152.103729 
	C188.425629,152.070282 269.708771,151.968658 350.991119,152.171814 
	C374.950317,152.231689 395.826080,172.231186 396.099243,196.169571 
	C396.604797,240.466019 396.135773,284.773621 396.011719,329.918701 
	C391.623291,355.057220 370.480591,370.139740 351.318359,370.153778 
	C291.324860,370.197723 231.330872,370.298340 171.337997,370.101501 
	C149.692276,370.030487 133.967392,353.285767 129.845703,333.031097 
M222.499985,268.278992 
	C263.152710,268.278625 303.805450,268.292358 344.458099,268.247253 
	C347.268005,268.244110 350.173981,268.178009 352.866669,267.485565 
	C358.218567,266.109192 361.848541,261.503235 361.869110,256.779663 
	C361.888702,252.278336 358.469391,247.936356 353.235413,246.335022 
	C350.881683,245.614883 348.338135,245.187042 345.880066,245.184204 
	C290.732422,245.120758 235.584595,245.105453 180.437073,245.213226 
	C177.359192,245.219238 174.127838,245.959778 171.243881,247.073212 
	C167.067169,248.685715 164.456711,252.086060 164.310883,256.639160 
	C164.163239,261.249207 166.715591,264.718201 170.853134,266.405945 
	C173.689026,267.562744 176.939438,268.153473 180.015289,268.194672 
	C193.841415,268.379883 207.671387,268.278046 222.499985,268.278992 
M176.096771,199.066055 
	C174.659058,199.475586 173.155731,199.733597 171.795639,200.322403 
	C167.313583,202.262756 164.292862,205.553070 164.357285,210.594650 
	C164.418594,215.391373 167.211380,218.785004 171.648560,220.388947 
	C174.246429,221.328003 177.124313,221.932846 179.877396,221.937164 
	C235.367691,222.024246 290.858154,222.002304 346.348602,222.000473 
	C347.181641,222.000458 348.017944,222.021179 348.847198,221.958984 
	C356.128479,221.412811 361.832520,216.390411 361.873199,210.508850 
	C361.914368,204.563126 356.320770,199.572021 348.954346,198.993210 
	C348.290863,198.941071 347.622223,198.939209 346.955994,198.939423 
	C290.299438,198.957230 233.642883,198.977554 176.096771,199.066055 
M291.487213,315.069183 
	C296.607147,314.706848 301.866394,314.948792 306.807281,313.809753 
	C311.611481,312.702271 314.857117,309.158875 315.016174,303.739258 
	C315.156769,298.948456 312.075958,294.897308 306.730286,293.110687 
	C304.715729,292.437378 302.504730,292.048553 300.382538,292.045349 
	C259.893036,291.984314 219.403290,291.959198 178.914093,292.086761 
	C176.026337,292.095856 172.955948,292.924347 170.300964,294.111176 
	C166.407715,295.851471 164.053497,299.162811 164.095154,303.595062 
	C164.136581,308.001984 166.424438,311.434235 170.393036,313.004578 
	C173.546967,314.252563 177.126312,314.970520 180.520294,314.983124 
	C217.177048,315.119141 253.834473,315.068756 291.487213,315.069183 
z"/>
<path fill="#1C5EBE" opacity="1.000000" stroke="none" 
	d="
M129.650452,333.370697 
	C133.967392,353.285767 149.692276,370.030487 171.337997,370.101501 
	C231.330872,370.298340 291.324860,370.197723 351.318359,370.153778 
	C370.480591,370.139740 391.623291,355.057220 396.052917,330.386658 
	C398.387054,341.172363 395.847382,351.589142 390.174194,361.053406 
	C380.690521,376.874512 366.200165,384.826813 347.879913,384.888184 
	C291.274567,385.077759 234.667938,385.054596 178.062302,384.914703 
	C151.290390,384.848541 130.720383,365.000702 129.100998,338.152557 
	C129.012436,336.684265 129.327820,335.191620 129.650452,333.370697 
z"/>
<path fill="#1B5CBE" opacity="1.000000" stroke="none" 
	d="
M94.208176,164.783325 
	C103.782639,180.781296 112.809959,197.611755 123.022095,213.689667 
	C128.377609,222.121338 129.800705,230.666153 129.004578,240.558441 
	C122.609497,231.301102 116.267570,221.595352 109.989143,211.848694 
	C106.933029,207.104401 104.184349,202.152069 100.960609,197.528076 
	C95.951027,190.342514 92.886345,182.734146 93.986420,173.767471 
	C94.328239,170.981232 94.113068,168.126663 94.208176,164.783325 
z"/>
<path fill="#77A8F3" opacity="1.000000" stroke="none" 
	d="
M51.218079,103.425339 
	C51.624920,103.607292 51.776024,104.033379 52.145035,105.106400 
	C45.461952,116.720642 38.083473,127.420624 31.761490,138.712128 
	C19.410400,160.772049 11.279532,184.479721 5.792213,209.591675 
	C5.522854,209.987045 5.151767,209.998520 5.151767,209.998520 
	C7.535320,199.763962 9.331200,189.348511 12.415272,179.329575 
	C20.854401,151.914169 34.063805,126.827034 51.218079,103.425339 
z"/>
<path fill="#6AA1F3" opacity="1.000000" stroke="none" 
	d="
M478.149017,131.301971 
	C478.328613,130.474670 478.625916,129.976990 478.973755,129.186783 
	C484.682770,140.636978 490.341217,152.379700 496.000244,164.937164 
	C495.936188,166.336258 495.871521,166.920609 495.806854,167.504959 
	C489.960114,155.547165 484.113403,143.589371 478.149017,131.301971 
z"/>
<path fill="#5D99EF" opacity="1.000000" stroke="none" 
	d="
M495.832397,167.855438 
	C495.871521,166.920609 495.936188,166.336258 496.028442,165.315063 
	C499.379517,175.276108 502.702972,185.673965 505.995819,196.762589 
	C505.668091,197.944458 505.370941,198.435562 505.073792,198.926697 
	C502.001831,188.686432 498.929871,178.446167 495.832397,167.855438 
z"/>
<path fill="#4B8DE9" opacity="1.000000" stroke="none" 
	d="
M505.127380,199.317688 
	C505.370941,198.435562 505.668091,197.944458 506.023987,197.165924 
	C507.727661,205.929840 509.372559,214.981155 511.020386,224.472656 
	C510.829895,225.450150 510.636444,225.987457 510.245544,226.731384 
	C508.425720,217.861557 506.803375,208.785126 505.127380,199.317688 
z"/>
<path fill="#619BEE" opacity="1.000000" stroke="none" 
	d="
M4.998971,210.374176 
	C5.151767,209.998520 5.522854,209.987045 5.707783,209.976196 
	C5.121620,214.498047 4.350528,219.030746 3.350489,223.896667 
	C3.696420,219.736526 4.271297,215.243179 4.998971,210.374176 
z"/>
<path fill="#185DC0" opacity="1.000000" stroke="none" 
	d="
M8.155904,315.833893 
	C7.672792,315.524872 7.365694,315.044434 7.137413,314.258667 
	C7.588126,314.523071 7.960021,315.092773 8.155904,315.833893 
z"/>
<path fill="#185DC0" opacity="1.000000" stroke="none" 
	d="
M10.160346,323.832153 
	C9.668746,323.525238 9.354254,323.045990 9.122608,322.261475 
	C9.582788,322.524078 9.960120,323.091919 10.160346,323.832153 
z"/>
<path fill="#185DC0" opacity="1.000000" stroke="none" 
	d="
M504.551514,323.027954 
	C504.728149,323.554077 504.661774,324.152161 504.305603,324.877136 
	C504.113342,324.369293 504.210907,323.734589 504.551514,323.027954 
z"/>
<path fill="#185DC0" opacity="1.000000" stroke="none" 
	d="
M509.569641,302.118683 
	C509.914642,302.351166 509.829926,302.644684 509.258575,302.953918 
	C509.051971,302.734680 509.174652,302.471405 509.569641,302.118683 
z"/>
<path fill="#185DC0" opacity="1.000000" stroke="none" 
	d="
M5.930123,306.799713 
	C5.621820,306.986847 5.355636,306.809723 5.221465,306.231201 
	C5.519495,306.122040 5.725749,306.323883 5.930123,306.799713 
z"/>
<path fill="#185DC0" opacity="1.000000" stroke="none" 
	d="
M508.582611,307.115723 
	C508.671021,307.276947 508.584198,307.574829 508.256836,307.954468 
	C508.057404,307.730438 508.187744,307.469147 508.582611,307.115723 
z"/>
<path fill="#185DC0" opacity="1.000000" stroke="none" 
	d="
M507.636353,312.134583 
	C507.716522,312.292816 507.630219,312.602325 507.289429,312.986542 
	C507.101318,312.758728 507.246277,312.500244 507.636353,312.134583 
z"/>
<path fill="#8BB5F8" opacity="1.000000" stroke="none" 
	d="
M221.999969,268.279358 
	C207.671387,268.278046 193.841415,268.379883 180.015289,268.194672 
	C176.939438,268.153473 173.689026,267.562744 170.853134,266.405945 
	C166.715591,264.718201 164.163239,261.249207 164.310883,256.639160 
	C164.456711,252.086060 167.067169,248.685715 171.243881,247.073212 
	C174.127838,245.959778 177.359192,245.219238 180.437073,245.213226 
	C235.584595,245.105453 290.732422,245.120758 345.880066,245.184204 
	C348.338135,245.187042 350.881683,245.614883 353.235413,246.335022 
	C358.469391,247.936356 361.888702,252.278336 361.869110,256.779663 
	C361.848541,261.503235 358.218567,266.109192 352.866669,267.485565 
	C350.173981,268.178009 347.268005,268.244110 344.458099,268.247253 
	C303.805450,268.292358 263.152710,268.278625 221.999969,268.279358 
z"/>
<path fill="#8AB4F8" opacity="1.000000" stroke="none" 
	d="
M176.541550,199.031876 
	C233.642883,198.977554 290.299438,198.957230 346.955994,198.939423 
	C347.622223,198.939209 348.290863,198.941071 348.954346,198.993210 
	C356.320770,199.572021 361.914368,204.563126 361.873199,210.508850 
	C361.832520,216.390411 356.128479,221.412811 348.847198,221.958984 
	C348.017944,222.021179 347.181641,222.000458 346.348602,222.000473 
	C290.858154,222.002304 235.367691,222.024246 179.877396,221.937164 
	C177.124313,221.932846 174.246429,221.328003 171.648560,220.388947 
	C167.211380,218.785004 164.418594,215.391373 164.357285,210.594650 
	C164.292862,205.553070 167.313583,202.262756 171.795639,200.322403 
	C173.155731,199.733597 174.659058,199.475586 176.541550,199.031876 
z"/>
<path fill="#8AB4F8" opacity="1.000000" stroke="none" 
	d="
M290.989471,315.069244 
	C253.834473,315.068756 217.177048,315.119141 180.520294,314.983124 
	C177.126312,314.970520 173.546967,314.252563 170.393036,313.004578 
	C166.424438,311.434235 164.136581,308.001984 164.095154,303.595062 
	C164.053497,299.162811 166.407715,295.851471 170.300964,294.111176 
	C172.955948,292.924347 176.026337,292.095856 178.914093,292.086761 
	C219.403290,291.959198 259.893036,291.984314 300.382538,292.045349 
	C302.504730,292.048553 304.715729,292.437378 306.730286,293.110687 
	C312.075958,294.897308 315.156769,298.948456 315.016174,303.739258 
	C314.857117,309.158875 311.611481,312.702271 306.807281,313.809753 
	C301.866394,314.948792 296.607147,314.706848 290.989471,315.069244 
z"/>
</svg>