<?xml version="1.0" encoding="utf-8"?>
<!-- Generator: Adobe Illustrator 24.1.1, SVG Export Plug-In . SVG Version: 6.00 Build 0)  -->
<svg version="1.1" id="Layer_1" xmlns="http://www.w3.org/2000/svg" xmlns:xlink="http://www.w3.org/1999/xlink" x="0px" y="0px"
	 viewBox="0 0 512 512" style="enable-background:new 0 0 512 512;" xml:space="preserve">
<g>
	<path d="M102.4,204.8v-51.2C102.4,68.8,171.2,0,256,0s153.6,68.8,153.6,153.6v51.2h25.6c28.3,0,51.2,22.9,51.2,51.2v204.8
		c0,28.3-22.9,51.2-51.2,51.2H76.8c-28.3,0-51.2-22.9-51.2-51.2V256c0-28.2,23-51.2,51.2-51.2H102.4z M230.4,377.1v58.1h51.2v-58.1
		c24.5-14.1,32.9-45.4,18.7-69.9c-14.1-24.5-45.4-32.9-69.9-18.7c-24.5,14.1-32.9,45.4-18.7,69.9
		C216.1,366.1,222.6,372.6,230.4,377.1z M179.2,153.6v51.2h153.6v-51.2c0-42.4-34.4-76.8-76.8-76.8S179.2,111.2,179.2,153.6z"/>
</g>
</svg>
