<?xml version="1.0" ?><!DOCTYPE svg  PUBLIC '-//W3C//DTD SVG 1.1//EN'  'http://www.w3.org/Graphics/SVG/1.1/DTD/svg11.dtd'><svg height="512px" style="enable-background:new 0 0 512 512;" version="1.1" viewBox="0 0 512 512" width="512px" xml:space="preserve" xmlns="http://www.w3.org/2000/svg" xmlns:xlink="http://www.w3.org/1999/xlink"><g id="comp_x5F_243-outlook"><g><path d="M471.624,126.283H284.746V54.219c-0.001-4.298-1.892-8.364-5.198-11.104c-3.282-2.738-7.681-3.922-11.819-3.053    L37.731,83.3c-6.814,1.275-11.73,7.211-11.73,14.157v317.106c0,6.919,4.916,12.883,11.73,14.157l229.997,43.24    c0.862,0.17,1.754,0.259,2.646,0.259c3.334,0,6.582-1.152,9.172-3.318c3.309-2.734,5.199-6.828,5.199-11.099v-72.067h186.878    c7.938,0,14.375-6.46,14.375-14.419V140.7C486,132.747,479.563,126.283,471.624,126.283z M429.736,155.112l-88.317,68.872    l-56.673-36.139v-32.733H429.736z M155.373,356.909c-39.618,0-71.874-38.803-71.874-86.485c0-47.679,32.256-86.484,71.874-86.484    s71.876,38.805,71.876,86.484C227.249,318.106,194.991,356.909,155.373,356.909z M457.251,356.907H284.746v-134.9l49.795,31.755    c2.332,1.505,5.034,2.249,7.708,2.249c3.105,0,6.239-1.007,8.831-3.026l106.171-82.827V356.907z"/><path d="M155.373,212.77c-23.776,0-43.123,25.857-43.123,57.654c0,31.799,19.347,57.656,43.123,57.656s43.13-25.857,43.13-57.656    C198.503,238.628,179.149,212.77,155.373,212.77z"/></g></g><g id="Layer_1"/></svg>