<?xml version="1.0" encoding="iso-8859-1"?>
<!-- Generator: Adobe Illustrator 22.1.0, SVG Export Plug-In . SVG Version: 6.00 Build 0)  -->
<svg version="1.1" id="Layer_1_1_" xmlns="http://www.w3.org/2000/svg" xmlns:xlink="http://www.w3.org/1999/xlink" x="0px" y="0px"
	 viewBox="0 0 64 64" style="enable-background:new 0 0 64 64;" xml:space="preserve">
<g>
	<circle style="fill:#DB4166;" cx="12" cy="52" r="10"/>
</g>
<g>
	<circle style="fill:#EF476F;" cx="52" cy="52" r="10"/>
</g>
<g>
	<circle style="fill:#8ED1ED;" cx="12" cy="12" r="10"/>
</g>
<g>
	<circle style="fill:#99E1FF;" cx="52" cy="12" r="10"/>
</g>
<path style="fill:#606060;" d="M38.625,51.219l-5-4l-1.25,1.562L35.149,51H25v2h10.149l-2.774,2.219l1.25,1.562l5-4
	C38.862,52.591,39,52.304,39,52S38.862,51.409,38.625,51.219z"/>
<path style="fill:#606060;" d="M38.625,11.219l-5-4l-1.25,1.562L35.149,11H25v2h10.149l-2.774,2.219l1.25,1.562l5-4
	C38.862,12.591,39,12.304,39,12S38.862,11.409,38.625,11.219z"/>
<path style="fill:#606060;" d="M48,35H15c-1.654,0-3-1.346-3-3v-3.149l2.219,2.774l1.562-1.25l-4-5
	c-0.381-0.475-1.182-0.475-1.562,0l-4,5l1.562,1.25L10,28.851V32c0,2.757,2.243,5,5,5h33c1.654,0,3,1.346,3,3h2
	C53,37.243,50.757,35,48,35z"/>
<g>
	<rect x="11" y="50" style="fill:#26547C;" width="2" height="4"/>
</g>
<g>
	<rect x="49" y="52" style="fill:#2D6494;" width="2" height="3"/>
</g>
<g>
	<rect x="53" y="49" style="fill:#2D6494;" width="2" height="6"/>
</g>
<g>
	<rect x="7" y="13" style="fill:#26547C;" width="2" height="3"/>
</g>
<g>
	<rect x="11" y="10" style="fill:#26547C;" width="2" height="6"/>
</g>
<g>
	<rect x="15" y="8" style="fill:#26547C;" width="2" height="8"/>
</g>
<g>
	<rect x="49" y="12" style="fill:#2D6494;" width="2" height="4"/>
</g>
<g>
	<rect x="53" y="10" style="fill:#2D6494;" width="2" height="6"/>
</g>
<g>
	<rect x="57" y="8" style="fill:#2D6494;" width="2" height="8"/>
</g>
<g>
	<rect x="45" y="14" style="fill:#2D6494;" width="2" height="2"/>
</g>
</svg>
