<svg version="1.1" id="Layer_1" xmlns="http://www.w3.org/2000/svg" xmlns:xlink="http://www.w3.org/1999/xlink" x="0px" y="0px"
	 width="100%" viewBox="0 0 409 409" enable-background="new 0 0 409 409" xml:space="preserve">
<path fill="currentColor" opacity="1.000000" stroke="none" 
	d="
M176.000000,1.000000 
	C195.354233,1.000000 214.708450,1.000000 234.480179,1.408476 
	C235.562103,2.205069 236.191772,2.848052 236.896027,2.944059 
	C254.952377,5.405615 272.232361,10.652226 288.828857,18.006195 
	C319.428925,31.565201 345.257294,51.607723 366.026062,77.734642 
	C388.476837,105.977417 402.718536,138.066483 408.083374,173.922379 
	C408.198730,174.693253 409.338257,175.310883 410.000000,176.000000 
	C410.000000,195.354233 410.000000,214.708450 409.591553,234.480194 
	C408.794952,235.562134 408.151978,236.191818 408.055969,236.896057 
	C405.594177,254.952347 400.347870,272.232422 392.993835,288.828888 
	C379.434723,319.428833 359.392334,345.257294 333.265411,366.026093 
	C305.022644,388.476807 272.933563,402.718597 237.077637,408.083405 
	C236.306763,408.198700 235.689133,409.338287 235.000000,410.000000 
	C215.645767,410.000000 196.291550,410.000000 176.519806,409.591553 
	C175.437820,408.794952 174.808105,408.151978 174.103821,408.055969 
	C156.047607,405.593964 138.767487,400.347900 122.171021,392.993835 
	C91.571053,379.434662 65.742645,359.392242 44.973866,333.265350 
	C22.523144,305.022552 8.281375,272.933502 2.916578,237.077576 
	C2.801244,236.306717 1.661734,235.689102 0.999998,235.000000 
	C1.000000,215.645767 1.000000,196.291550 1.408475,176.519821 
	C2.205065,175.437943 2.848064,174.808319 2.944055,174.104111 
	C5.405376,156.047699 10.652266,138.767761 18.006172,122.171280 
	C31.565090,91.571152 51.607655,65.742767 77.734581,44.973949 
	C105.977379,22.523176 138.066483,8.281387 173.922424,2.916585 
	C174.693283,2.801249 175.310898,1.661740 176.000000,1.000000 
M135.387512,26.832668 
	C129.166885,29.621674 122.731567,32.016945 116.764328,35.270653 
	C95.579796,46.821774 76.559052,61.114742 60.756081,79.589424 
	C47.116413,95.535057 36.083420,113.005066 28.055338,132.359634 
	C15.367770,162.947571 11.446404,194.745789 14.930907,227.600967 
	C17.416576,251.038177 24.285965,273.176788 35.171242,293.929596 
	C46.376797,315.292999 60.899136,334.196564 79.357086,350.025421 
	C95.415176,363.796234 113.011208,374.912140 132.529709,383.002411 
	C163.132965,395.687195 194.936447,399.549438 227.780731,396.054901 
	C251.214325,393.561584 273.351074,386.655701 294.095917,375.756897 
	C318.051666,363.171173 338.710388,346.388428 355.593964,325.017181 
	C379.555237,294.686890 393.465240,260.270721 396.726501,221.913773 
	C398.214996,204.406860 397.580261,186.731140 394.057220,169.263321 
	C386.630066,132.437988 370.131897,100.338295 344.410553,73.083366 
	C326.380646,53.978428 305.049591,39.370621 280.901886,28.997997 
	C261.840302,20.810099 241.922470,15.552011 221.244003,14.146949 
	C192.051178,12.163351 163.497452,15.654539 135.387512,26.832668 
z"/>
<path fill="#00000000" opacity="1.000000" stroke="none" 
	d="
M175.531342,1.000000 
	C175.310898,1.661740 174.693283,2.801249 173.922424,2.916585 
	C138.066483,8.281387 105.977379,22.523176 77.734581,44.973949 
	C51.607655,65.742767 31.565090,91.571152 18.006172,122.171280 
	C10.652266,138.767761 5.405376,156.047699 2.944055,174.104111 
	C2.848064,174.808319 2.205065,175.437943 1.408475,176.051163 
	C1.000000,117.739647 1.000000,59.479294 1.000000,1.000000 
	C59.020710,1.000000 117.041695,1.000000 175.531342,1.000000 
z"/>
<path fill="#00000000" opacity="1.000000" stroke="none" 
	d="
M410.000000,175.531342 
	C409.338257,175.310883 408.198730,174.693253 408.083374,173.922379 
	C402.718536,138.066483 388.476837,105.977417 366.026062,77.734642 
	C345.257294,51.607723 319.428925,31.565201 288.828857,18.006195 
	C272.232361,10.652226 254.952377,5.405615 236.896027,2.944059 
	C236.191772,2.848052 235.562103,2.205069 234.948837,1.408476 
	C293.260345,1.000000 351.520691,1.000000 410.000000,1.000000 
	C410.000000,59.020710 410.000000,117.041695 410.000000,175.531342 
z"/>
<path fill="#00000000" opacity="1.000000" stroke="none" 
	d="
M0.999998,235.468658 
	C1.661734,235.689102 2.801244,236.306717 2.916578,237.077576 
	C8.281375,272.933502 22.523144,305.022552 44.973866,333.265350 
	C65.742645,359.392242 91.571053,379.434662 122.171021,392.993835 
	C138.767487,400.347900 156.047607,405.593964 174.103821,408.055969 
	C174.808105,408.151978 175.437820,408.794952 176.051147,409.591553 
	C117.739647,410.000000 59.479294,410.000000 1.000000,410.000000 
	C1.000000,351.979279 1.000000,293.958313 0.999998,235.468658 
z"/>
<path fill="#00000000" opacity="1.000000" stroke="none" 
	d="
M235.468658,410.000000 
	C235.689133,409.338287 236.306763,408.198700 237.077637,408.083405 
	C272.933563,402.718597 305.022644,388.476807 333.265411,366.026093 
	C359.392334,345.257294 379.434723,319.428833 392.993835,288.828888 
	C400.347870,272.232422 405.594177,254.952347 408.055969,236.896057 
	C408.151978,236.191818 408.794952,235.562134 409.591553,234.948853 
	C410.000000,275.354218 410.000000,315.708466 409.531342,356.531342 
	C395.839386,357.000000 382.616058,357.000000 369.000000,357.000000 
	C369.000000,374.929413 369.000000,392.464722 369.000000,410.000000 
	C324.645782,410.000000 280.291534,410.000000 235.468658,410.000000 
z"/>
<path fill="#FFFFFF" opacity="1.000000" stroke="none" 
	d="
M369.468658,410.000000 
	C369.000000,392.464722 369.000000,374.929413 369.000000,357.000000 
	C382.616058,357.000000 395.839386,357.000000 409.531342,357.000000 
	C410.000000,374.584045 410.000000,392.168060 410.000000,410.000000 
	C396.646790,410.000000 383.292053,410.000000 369.468658,410.000000 
z"/>
<path opacity="1.000000" stroke="none" 
	d="
M135.738098,26.665266 
	C163.497452,15.654539 192.051178,12.163351 221.244003,14.146949 
	C241.922470,15.552011 261.840302,20.810099 280.901886,28.997997 
	C305.049591,39.370621 326.380646,53.978428 344.410553,73.083366 
	C370.131897,100.338295 386.630066,132.437988 394.057220,169.263321 
	C397.580261,186.731140 398.214996,204.406860 396.726501,221.913773 
	C393.465240,260.270721 379.555237,294.686890 355.593964,325.017181 
	C338.710388,346.388428 318.051666,363.171173 294.095917,375.756897 
	C273.351074,386.655701 251.214325,393.561584 227.780731,396.054901 
	C194.936447,399.549438 163.132965,395.687195 132.529709,383.002411 
	C113.011208,374.912140 95.415176,363.796234 79.357086,350.025421 
	C60.899136,334.196564 46.376797,315.292999 35.171242,293.929596 
	C24.285965,273.176788 17.416576,251.038177 14.930907,227.600967 
	C11.446404,194.745789 15.367770,162.947571 28.055338,132.359634 
	C36.083420,113.005066 47.116413,95.535057 60.756081,79.589424 
	C76.559052,61.114742 95.579796,46.821774 116.764328,35.270653 
	C122.731567,32.016945 129.166885,29.621674 135.738098,26.665266 
M223.195480,76.936722 
	C201.243668,79.466446 179.291855,81.996178 157.522369,84.504890 
	C149.860352,67.367538 140.154236,60.165459 126.537552,61.150333 
	C114.176033,62.044418 103.787971,70.591316 100.491913,82.579697 
	C96.778458,96.086182 101.844513,106.289719 118.256737,118.050125 
	C109.980103,146.976074 101.676567,175.996033 93.423759,204.838699 
	C74.821136,204.939606 64.479317,211.111710 59.970203,224.419724 
	C56.021648,236.073303 60.024616,249.223114 69.785828,256.663971 
	C80.970108,265.189606 93.155136,264.665161 107.871010,254.825470 
	C132.978302,277.277374 158.156631,299.792786 183.252518,322.234467 
	C174.741913,338.639771 176.305389,352.231842 187.583450,362.058472 
	C197.683121,370.858368 212.880554,371.512726 223.630478,363.610443 
	C235.953430,354.551880 238.311554,341.427734 230.689911,323.036682 
	C258.520355,300.028259 286.445648,276.941437 314.373688,253.852356 
	C315.388611,254.723511 316.001587,255.285004 316.650452,255.801346 
	C330.305176,266.666962 349.118713,264.305054 358.982788,250.491592 
	C368.551270,237.092056 364.890137,218.068726 351.044067,209.241302 
	C336.701355,200.097305 318.238525,204.853760 309.885590,220.178604 
	C308.159668,223.345154 306.526031,223.436279 303.602539,222.590927 
	C291.941406,219.219040 280.220825,216.053177 268.533417,212.771408 
	C257.057220,209.548920 245.594513,206.278351 234.069321,203.012848 
	C235.819733,188.900177 230.652786,178.527313 218.603760,171.229691 
	C228.000076,148.426987 237.345291,125.748291 246.221664,104.207390 
	C252.791489,103.779900 258.567993,104.246674 263.881409,102.894165 
	C277.675751,99.382874 286.686279,85.235901 284.595581,71.614113 
	C282.259277,56.392063 269.519714,45.541019 254.760208,46.201538 
	C240.061340,46.859341 228.343796,58.098843 226.854599,72.675606 
	C226.704071,74.149071 225.040390,75.467941 223.195480,76.936722 
z"/>
<path fill="#F6CB5F" opacity="1.000000" stroke="none" 
	d="
M223.637207,76.897636 
	C225.040390,75.467941 226.704071,74.149071 226.854599,72.675606 
	C228.343796,58.098843 240.061340,46.859341 254.760208,46.201538 
	C269.519714,45.541019 282.259277,56.392063 284.595581,71.614113 
	C286.686279,85.235901 277.675751,99.382874 263.881409,102.894165 
	C258.567993,104.246674 252.791489,103.779900 246.221664,104.207390 
	C237.345291,125.748291 228.000076,148.426987 218.603760,171.229691 
	C230.652786,178.527313 235.819733,188.900177 234.069321,203.012848 
	C245.594513,206.278351 257.057220,209.548920 268.533417,212.771408 
	C280.220825,216.053177 291.941406,219.219040 303.602539,222.590927 
	C306.526031,223.436279 308.159668,223.345154 309.885590,220.178604 
	C318.238525,204.853760 336.701355,200.097305 351.044067,209.241302 
	C364.890137,218.068726 368.551270,237.092056 358.982788,250.491592 
	C349.118713,264.305054 330.305176,266.666962 316.650452,255.801346 
	C316.001587,255.285004 315.388611,254.723511 314.373688,253.852356 
	C286.445648,276.941437 258.520355,300.028259 230.689911,323.036682 
	C238.311554,341.427734 235.953430,354.551880 223.630478,363.610443 
	C212.880554,371.512726 197.683121,370.858368 187.583450,362.058472 
	C176.305389,352.231842 174.741913,338.639771 183.252518,322.234467 
	C158.156631,299.792786 132.978302,277.277374 107.871010,254.825470 
	C93.155136,264.665161 80.970108,265.189606 69.785828,256.663971 
	C60.024616,249.223114 56.021648,236.073303 59.970203,224.419724 
	C64.479317,211.111710 74.821136,204.939606 93.423759,204.838699 
	C101.676567,175.996033 109.980103,146.976074 118.256737,118.050125 
	C101.844513,106.289719 96.778458,96.086182 100.491913,82.579697 
	C103.787971,70.591316 114.176033,62.044418 126.537552,61.150333 
	C140.154236,60.165459 149.860352,67.367538 157.522369,84.504890 
	C179.291855,81.996178 201.243668,79.466446 223.637207,76.897636 
M216.443085,224.141159 
	C204.064804,228.537903 192.361130,225.870605 184.020142,216.751953 
	C176.230316,208.235855 174.018845,195.410599 179.266281,185.109985 
	C186.640564,170.634399 198.966003,166.253326 214.670090,169.397034 
	C224.031326,146.666306 233.311798,124.131706 242.720062,101.286797 
	C234.490356,96.656273 229.425797,89.911934 227.206833,80.766296 
	C203.813873,83.513687 180.755737,86.221756 157.882095,88.908157 
	C154.382690,111.089806 147.031204,117.323845 122.638840,119.277740 
	C122.459137,119.650009 122.182755,120.061501 122.052727,120.514961 
	C114.173744,147.994202 106.341858,175.487061 98.382179,202.942871 
	C97.620041,205.571762 98.280853,206.716766 100.619316,207.950211 
	C110.180580,212.993317 116.125359,220.982986 116.052094,231.823959 
	C116.006927,238.506744 113.589996,245.173477 112.053398,252.758301 
	C136.068802,274.228699 161.136520,296.639862 186.151123,319.003571 
	C202.264023,308.216400 210.926529,308.368439 227.909668,319.711700 
	C255.687088,296.745789 283.520874,273.733246 310.284546,251.605469 
	C308.526428,243.180191 306.966980,235.706955 305.248444,227.471390 
	C281.959595,220.968826 257.514282,214.143356 233.221146,207.360382 
	C226.959671,217.775131 224.861923,219.911118 216.443085,224.141159 
M120.404053,113.373756 
	C125.299614,113.551018 130.413269,114.725327 135.048309,113.711510 
	C147.124405,111.070107 154.841599,98.562538 152.883102,86.251030 
	C150.982620,74.304199 139.562027,64.745956 127.906380,65.347214 
	C116.195091,65.951355 106.233620,74.363678 104.160873,85.399933 
	C101.965446,97.089523 108.101830,108.060974 120.404053,113.373756 
M209.080032,172.978271 
	C207.583710,172.935013 206.085022,172.815048 204.591431,172.860855 
	C194.421249,173.172607 187.141388,178.219620 183.061279,187.263794 
	C178.873856,196.545837 180.175003,205.627457 186.883820,213.352768 
	C193.545090,221.023315 202.138519,223.845062 212.084274,221.049286 
	C223.196182,217.925674 230.177338,208.377426 230.070282,196.958694 
	C229.959702,185.161377 222.584274,176.394135 209.080032,172.978271 
M352.118774,251.638962 
	C358.933441,245.117004 361.534454,237.173462 359.362091,228.025467 
	C356.736725,216.969940 347.336121,209.372543 336.492645,209.012283 
	C325.583771,208.649857 315.340759,215.537735 312.100677,225.414627 
	C308.512024,236.354111 312.305450,247.864212 321.546448,254.075150 
	C330.886841,260.352905 342.559418,259.597443 352.118774,251.638962 
M208.344711,315.762360 
	C207.346756,315.757629 206.347427,315.716583 205.351028,315.753693 
	C192.092438,316.247223 182.000412,326.736877 181.961655,340.052307 
	C181.922348,353.555939 192.555252,364.518921 206.084381,364.923889 
	C218.690353,365.301239 230.291504,354.891541 231.053772,342.518890 
	C231.926132,328.359283 222.842560,317.235107 208.344711,315.762360 
M280.000916,79.956802 
	C280.082794,78.462212 280.226379,76.968048 280.236694,75.472961 
	C280.313477,64.330017 274.069061,55.472771 263.678314,51.941128 
	C253.491913,48.478931 242.710007,51.814808 236.038712,60.492664 
	C229.606369,68.859726 229.352921,80.517136 235.623108,89.362389 
	C241.190384,97.216057 249.056808,100.964561 258.493103,99.738647 
	C269.580750,98.298187 276.808258,91.707886 280.000916,79.956802 
M104.661346,251.153458 
	C114.688766,240.333984 114.621056,225.724869 104.497917,215.897095 
	C95.092651,206.766266 80.081627,206.677704 70.639656,215.697311 
	C60.604702,225.283371 60.120087,240.571274 69.530518,250.687149 
	C78.501747,260.330933 93.670685,260.757660 104.661346,251.153458 
z"/>
<path  opacity="1.000000" stroke="none" 
	d="
M216.811020,224.016907 
	C224.861923,219.911118 226.959671,217.775131 233.221146,207.360382 
	C257.514282,214.143356 281.959595,220.968826 305.248444,227.471390 
	C306.966980,235.706955 308.526428,243.180191 310.284546,251.605469 
	C283.520874,273.733246 255.687088,296.745789 227.909668,319.711700 
	C210.926529,308.368439 202.264023,308.216400 186.151123,319.003571 
	C161.136520,296.639862 136.068802,274.228699 112.053398,252.758301 
	C113.589996,245.173477 116.006927,238.506744 116.052094,231.823959 
	C116.125359,220.982986 110.180580,212.993317 100.619316,207.950211 
	C98.280853,206.716766 97.620041,205.571762 98.382179,202.942871 
	C106.341858,175.487061 114.173744,147.994202 122.052727,120.514961 
	C122.182755,120.061501 122.459137,119.650009 122.638840,119.277740 
	C147.031204,117.323845 154.382690,111.089806 157.882095,88.908157 
	C180.755737,86.221756 203.813873,83.513687 227.206833,80.766296 
	C229.425797,89.911934 234.490356,96.656273 242.720062,101.286797 
	C233.311798,124.131706 224.031326,146.666306 214.670090,169.397034 
	C198.966003,166.253326 186.640564,170.634399 179.266281,185.109985 
	C174.018845,195.410599 176.230316,208.235855 184.020142,216.751953 
	C192.361130,225.870605 204.064804,228.537903 216.811020,224.016907 
z"/>
<path fill="#FFFEFD" opacity="1.000000" stroke="none" 
	d="
M120.032700,113.243736 
	C108.101830,108.060974 101.965446,97.089523 104.160873,85.399933 
	C106.233620,74.363678 116.195091,65.951355 127.906380,65.347214 
	C139.562027,64.745956 150.982620,74.304199 152.883102,86.251030 
	C154.841599,98.562538 147.124405,111.070107 135.048309,113.711510 
	C130.413269,114.725327 125.299614,113.551018 120.032700,113.243736 
z"/>
<path fill="#FFFFFE" opacity="1.000000" stroke="none" 
	d="
M209.517075,173.012360 
	C222.584274,176.394135 229.959702,185.161377 230.070282,196.958694 
	C230.177338,208.377426 223.196182,217.925674 212.084274,221.049286 
	C202.138519,223.845062 193.545090,221.023315 186.883820,213.352768 
	C180.175003,205.627457 178.873856,196.545837 183.061279,187.263794 
	C187.141388,178.219620 194.421249,173.172607 204.591431,172.860855 
	C206.085022,172.815048 207.583710,172.935013 209.517075,173.012360 
z"/>
<path fill="#FFFFFE" opacity="1.000000" stroke="none" 
	d="
M351.856262,251.884735 
	C342.559418,259.597443 330.886841,260.352905 321.546448,254.075150 
	C312.305450,247.864212 308.512024,236.354111 312.100677,225.414627 
	C315.340759,215.537735 325.583771,208.649857 336.492645,209.012283 
	C347.336121,209.372543 356.736725,216.969940 359.362091,228.025467 
	C361.534454,237.173462 358.933441,245.117004 351.856262,251.884735 
z"/>
<path fill="#FFFEFD" opacity="1.000000" stroke="none" 
	d="
M208.797058,315.789276 
	C222.842560,317.235107 231.926132,328.359283 231.053772,342.518890 
	C230.291504,354.891541 218.690353,365.301239 206.084381,364.923889 
	C192.555252,364.518921 181.922348,353.555939 181.961655,340.052307 
	C182.000412,326.736877 192.092438,316.247223 205.351028,315.753693 
	C206.347427,315.716583 207.346756,315.757629 208.797058,315.789276 
z"/>
<path fill="#FFFFFD" opacity="1.000000" stroke="none" 
	d="
M279.943359,80.386292 
	C276.808258,91.707886 269.580750,98.298187 258.493103,99.738647 
	C249.056808,100.964561 241.190384,97.216057 235.623108,89.362389 
	C229.352921,80.517136 229.606369,68.859726 236.038712,60.492664 
	C242.710007,51.814808 253.491913,48.478931 263.678314,51.941128 
	C274.069061,55.472771 280.313477,64.330017 280.236694,75.472961 
	C280.226379,76.968048 280.082794,78.462212 279.943359,80.386292 
z"/>
<path fill="#FFFFFE" opacity="1.000000" stroke="none" 
	d="
M104.401794,251.407135 
	C93.670685,260.757660 78.501747,260.330933 69.530518,250.687149 
	C60.120087,240.571274 60.604702,225.283371 70.639656,215.697311 
	C80.081627,206.677704 95.092651,206.766266 104.497917,215.897095 
	C114.621056,225.724869 114.688766,240.333984 104.401794,251.407135 
z"/>
</svg>