<svg version="1.1" id="Layer_1" xmlns="http://www.w3.org/2000/svg" xmlns:xlink="http://www.w3.org/1999/xlink" x="0px" y="0px"
	 width="100%" viewBox="0 0 512 512" enable-background="new 0 0 512 512" xml:space="preserve">
<path opacity="1.000000" stroke="none" 
	d="
M289.000000,513.000000 
	C270.312439,513.000000 251.624878,513.000000 232.140335,512.771667 
	C230.307312,510.638947 229.648468,508.358734 228.180176,506.885040 
	C190.209167,468.774963 152.150925,430.751831 114.124214,392.697235 
	C112.601891,391.173798 111.240387,389.489685 110.282784,387.784180 
	C197.017853,387.687958 283.274078,387.687958 369.634705,387.687958 
	C369.634705,339.038788 369.634705,291.049286 369.634705,242.077820 
	C360.296936,253.287064 351.470581,263.662079 342.962860,274.292114 
	C341.372742,276.278870 340.297516,279.281036 340.275696,281.825653 
	C340.074371,305.315643 340.156891,328.808044 340.156860,352.299744 
	C340.156860,354.057526 340.156860,355.815308 340.156860,357.513550 
	C272.586212,357.513550 205.732544,357.513550 138.919495,357.513550 
	C138.919495,290.229248 138.919495,223.353104 138.919495,156.079147 
	C151.111877,156.079147 162.912323,156.079132 174.712753,156.079132 
	C223.195618,156.079117 271.678558,156.105072 320.161133,155.989258 
	C322.213806,155.984360 324.967285,155.274704 326.199341,153.855774 
	C333.839783,145.056290 341.138184,135.959854 348.848145,127.062943 
	C354.186523,132.127762 359.226929,137.091599 364.129517,142.379822 
	C327.624115,186.533813 291.256470,230.363449 254.584732,274.559601 
	C230.658340,251.163116 207.020111,228.048416 183.639496,205.185623 
	C173.573410,215.223114 163.812088,224.956696 154.332794,234.409058 
	C188.719009,268.791809 223.311920,303.381226 258.068085,338.133911 
	C258.800018,337.350647 259.865509,336.315674 260.812439,335.181732 
	C291.131714,298.874817 321.539856,262.641418 351.711304,226.212021 
	C369.660034,204.540466 387.233734,182.558319 405.307251,160.832123 
	C407.382263,162.469818 409.222046,163.895126 410.855682,165.526825 
	C443.297394,197.930466 475.710938,230.362305 508.151581,262.767029 
	C509.666046,264.279785 511.379333,265.593536 513.000000,267.000000 
	C513.000000,274.020966 513.000000,281.041901 512.586060,288.417236 
	C511.143616,293.626740 509.866333,298.444397 509.128937,303.343353 
	C505.609100,326.726990 497.846527,348.762085 487.575836,369.902405 
	C478.042480,389.524872 466.096680,407.616455 451.626862,424.055176 
	C437.826080,439.733765 422.792084,453.954773 405.796478,466.152832 
	C387.514160,479.274323 367.831299,489.802246 346.809601,497.590454 
	C328.942566,504.209961 310.520386,509.097137 291.455658,511.118774 
	C290.580444,511.211578 289.816010,512.349060 289.000000,513.000000 
z"/>
<path opacity="1.000000" stroke="none" 
	d="
M364.267334,142.055435 
	C359.226929,137.091599 354.186523,132.127762 348.440613,126.879913 
	C346.906372,126.532082 346.077667,126.412437 345.248962,126.412331 
	C267.959015,126.402298 190.669052,126.399200 113.379105,126.417015 
	C111.967339,126.417343 110.555641,126.674332 109.071312,126.818619 
	C108.994957,128.455734 108.894112,129.610016 108.894012,130.764313 
	C108.886528,214.883774 108.882011,299.003235 108.925117,383.122650 
	C108.925926,384.708710 109.498283,386.294525 109.803963,387.880432 
	C111.240387,389.489685 112.601891,391.173798 114.124214,392.697235 
	C152.150925,430.751831 190.209167,468.774963 228.180176,506.885040 
	C229.648468,508.358734 230.307312,510.638947 231.671677,512.771667 
	C229.958328,513.000000 227.916672,513.000000 225.764313,512.652588 
	C224.809174,511.873474 224.007278,511.210541 223.113617,511.045990 
	C214.328217,509.427979 205.448776,508.240295 196.746475,506.266998 
	C173.513947,500.998962 151.641769,492.198669 130.882401,480.478577 
	C114.632362,471.304291 99.358078,460.721283 85.783134,448.015961 
	C75.552200,438.440369 66.040932,428.001160 56.974216,417.298401 
	C43.037384,400.846588 32.054314,382.466766 23.225176,362.739319 
	C12.941301,339.761505 5.816063,315.970062 2.916955,290.933289 
	C2.834868,290.224365 1.663473,289.641571 1.000003,289.000000 
	C1.000000,267.979095 1.000000,246.958206 1.347457,225.795456 
	C2.126573,224.809097 2.789477,224.007187 2.954064,223.113510 
	C4.572074,214.328125 5.759777,205.448685 7.733027,196.746384 
	C13.001009,173.513855 21.801332,151.641693 33.521450,130.882355 
	C42.695751,114.632317 53.278706,99.357986 65.984077,85.783089 
	C75.559669,75.552170 85.998878,66.040901 96.701653,56.974205 
	C113.153404,43.037346 131.533234,32.054298 151.260666,23.225166 
	C174.238480,12.941301 198.029892,5.816067 223.066681,2.916950 
	C223.775604,2.834860 224.358383,1.663461 225.000000,0.999997 
	C246.020889,1.000000 267.041779,1.000000 288.204529,1.347448 
	C289.190887,2.126561 289.994049,2.799239 290.886383,2.952446 
	C299.381775,4.411048 308.030579,5.222004 316.372070,7.283969 
	C339.915222,13.103694 362.419861,21.618326 383.543823,33.779781 
	C399.425568,42.923195 414.502106,53.199203 427.864899,65.631256 
	C438.122253,75.174225 447.553925,85.685493 456.688538,96.335854 
	C470.954895,112.969467 482.023071,131.692932 490.980835,151.698746 
	C501.196564,174.514084 508.232819,198.186310 511.083160,223.066833 
	C511.164307,223.775116 512.336548,224.358414 513.000000,225.000000 
	C513.000000,238.687561 513.000000,252.375122 513.000000,266.531342 
	C511.379333,265.593536 509.666046,264.279785 508.151581,262.767029 
	C475.710938,230.362305 443.297394,197.930466 410.855682,165.526825 
	C409.222046,163.895126 407.382263,162.469818 405.174133,160.547760 
	C393.833527,151.266068 382.957306,142.385056 372.024384,133.457748 
	C369.126038,136.670197 366.696686,139.362808 364.267334,142.055435 
z"/>
<path fill="#00000000" opacity="1.000000" stroke="none" 
	d="
M513.000000,224.531342 
	C512.336548,224.358414 511.164307,223.775116 511.083160,223.066833 
	C508.232819,198.186310 501.196564,174.514084 490.980835,151.698746 
	C482.023071,131.692932 470.954895,112.969467 456.688538,96.335854 
	C447.553925,85.685493 438.122253,75.174225 427.864899,65.631256 
	C414.502106,53.199203 399.425568,42.923195 383.543823,33.779781 
	C362.419861,21.618326 339.915222,13.103694 316.372070,7.283969 
	C308.030579,5.222004 299.381775,4.411048 290.886383,2.952446 
	C289.994049,2.799239 289.190887,2.126561 288.673187,1.347448 
	C363.593719,1.000000 438.187408,1.000000 513.000000,1.000000 
	C513.000000,75.354088 513.000000,149.708389 513.000000,224.531342 
z"/>
<path fill="#00000000" opacity="1.000000" stroke="none" 
	d="
M224.531342,0.999997 
	C224.358383,1.663461 223.775604,2.834860 223.066681,2.916950 
	C198.029892,5.816067 174.238480,12.941301 151.260666,23.225166 
	C131.533234,32.054298 113.153404,43.037346 96.701653,56.974205 
	C85.998878,66.040901 75.559669,75.552170 65.984077,85.783089 
	C53.278706,99.357986 42.695751,114.632317 33.521450,130.882355 
	C21.801332,151.641693 13.001009,173.513855 7.733027,196.746384 
	C5.759777,205.448685 4.572074,214.328125 2.954064,223.113510 
	C2.789477,224.007187 2.126573,224.809097 1.347457,225.326797 
	C1.000000,150.406296 1.000000,75.812576 1.000000,1.000000 
	C75.354088,1.000000 149.708389,1.000000 224.531342,0.999997 
z"/>
<path fill="#00000000" opacity="1.000000" stroke="none" 
	d="
M1.000003,289.468658 
	C1.663473,289.641571 2.834868,290.224365 2.916955,290.933289 
	C5.816063,315.970062 12.941301,339.761505 23.225176,362.739319 
	C32.054314,382.466766 43.037384,400.846588 56.974216,417.298401 
	C66.040932,428.001160 75.552200,438.440369 85.783134,448.015961 
	C99.358078,460.721283 114.632362,471.304291 130.882401,480.478577 
	C151.641769,492.198669 173.513947,500.998962 196.746475,506.266998 
	C205.448776,508.240295 214.328217,509.427979 223.113617,511.045990 
	C224.007278,511.210541 224.809174,511.873474 225.326813,512.652588 
	C150.406296,513.000000 75.812599,513.000000 1.000000,513.000000 
	C1.000000,438.645905 1.000000,364.291626 1.000003,289.468658 
z"/>
<path fill="#00000000" opacity="1.000000" stroke="none" 
	d="
M289.468628,513.000000 
	C289.816010,512.349060 290.580444,511.211578 291.455658,511.118774 
	C310.520386,509.097137 328.942566,504.209961 346.809601,497.590454 
	C367.831299,489.802246 387.514160,479.274323 405.796478,466.152832 
	C422.792084,453.954773 437.826080,439.733765 451.626862,424.055176 
	C466.096680,407.616455 478.042480,389.524872 487.575836,369.902405 
	C497.846527,348.762085 505.609100,326.726990 509.128937,303.343353 
	C509.866333,298.444397 511.143616,293.626740 512.586060,288.885803 
	C513.000000,363.593719 513.000000,438.187408 513.000000,513.000000 
	C438.645905,513.000000 364.291626,513.000000 289.468628,513.000000 
z"/>
<path fill="#FCFDFE" opacity="1.000000" stroke="none" 
	d="
M110.282791,387.784180 
	C109.498283,386.294525 108.925926,384.708710 108.925117,383.122650 
	C108.882011,299.003235 108.886528,214.883774 108.894012,130.764313 
	C108.894112,129.610016 108.994957,128.455734 109.071312,126.818619 
	C110.555641,126.674332 111.967339,126.417343 113.379105,126.417015 
	C190.669052,126.399200 267.959015,126.402298 345.248962,126.412331 
	C346.077667,126.412437 346.906372,126.532082 348.142578,126.778946 
	C341.138184,135.959854 333.839783,145.056290 326.199341,153.855774 
	C324.967285,155.274704 322.213806,155.984360 320.161133,155.989258 
	C271.678558,156.105072 223.195618,156.079117 174.712753,156.079132 
	C162.912323,156.079132 151.111877,156.079147 138.919495,156.079147 
	C138.919495,223.353104 138.919495,290.229248 138.919495,357.513550 
	C205.732544,357.513550 272.586212,357.513550 340.156860,357.513550 
	C340.156860,355.815308 340.156860,354.057526 340.156860,352.299744 
	C340.156891,328.808044 340.074371,305.315643 340.275696,281.825653 
	C340.297516,279.281036 341.372742,276.278870 342.962860,274.292114 
	C351.470581,263.662079 360.296936,253.287064 369.634705,242.077820 
	C369.634705,291.049286 369.634705,339.038788 369.634705,387.687958 
	C283.274078,387.687958 197.017853,387.687958 110.282791,387.784180 
z"/>
<path fill="#FDFEFF" opacity="1.000000" stroke="none" 
	d="
M364.129517,142.379791 
	C366.696686,139.362808 369.126038,136.670197 372.024384,133.457748 
	C382.957306,142.385056 393.833527,151.266068 404.842896,160.431458 
	C387.233734,182.558319 369.660034,204.540466 351.711304,226.212021 
	C321.539856,262.641418 291.131714,298.874817 260.812439,335.181732 
	C259.865509,336.315674 258.800018,337.350647 258.068085,338.133911 
	C223.311920,303.381226 188.719009,268.791809 154.332794,234.409058 
	C163.812088,224.956696 173.573410,215.223114 183.639496,205.185623 
	C207.020111,228.048416 230.658340,251.163116 254.584732,274.559601 
	C291.256470,230.363449 327.624115,186.533813 364.129517,142.379791 
z"/>
</svg>